<svg width="872" height="552" viewBox="0 0 872 552" fill="none" xmlns="http://www.w3.org/2000/svg">
<path d="M198.491 146.028C208.958 146.028 217.443 138.366 217.443 128.914C217.443 119.462 208.958 111.8 198.491 111.8C188.025 111.8 179.54 119.462 179.54 128.914C179.54 138.366 188.025 146.028 198.491 146.028Z" fill="#DEE5DC"/>
<path d="M197.775 117.371C205.385 117.371 211.555 111.8 211.555 104.928C211.555 98.055 205.385 92.4836 197.775 92.4836C190.164 92.4836 183.995 98.055 183.995 104.928C183.995 111.8 190.164 117.371 197.775 117.371Z" fill="#DEE5DC"/>
<path d="M197.973 169.301C197.115 169.301 196.418 168.789 196.416 168.015L196.217 99.8628C196.215 99.086 196.911 98.4307 197.771 98.4307C197.772 98.4307 197.773 98.4307 197.774 98.4307C198.633 98.4307 199.33 99.1383 199.332 99.9128L199.53 167.967C199.532 168.743 198.837 169.301 197.977 169.301C197.976 169.301 197.974 169.301 197.973 169.301Z" fill="#161616"/>
<path d="M197.975 134.033C197.419 134.033 196.882 133.764 196.601 133.29C196.195 132.606 196.48 131.754 197.239 131.387L207.478 126.437C208.236 126.07 209.18 126.328 209.586 127.013C209.991 127.697 209.706 128.549 208.948 128.916L198.708 133.866C198.474 133.979 198.223 134.033 197.975 134.033Z" fill="#161616"/>
<path d="M197.775 113.207C197.33 113.207 196.888 113.035 196.58 112.703L188.525 104.002C187.973 103.406 188.061 102.519 188.72 102.022C189.38 101.522 190.361 101.603 190.913 102.198L198.969 110.899C199.521 111.495 199.433 112.382 198.773 112.879C198.482 113.099 198.128 113.207 197.775 113.207Z" fill="#161616"/>
<path d="M94.0514 258.732V157.489C94.0514 157.489 572.496 130.554 708.368 253.252L94.0514 258.732Z" fill="#DEE5DC"/>
<path d="M94.0514 258.817C94.0514 258.817 424.166 205.196 796.012 245.391V466.591L94.0514 460.257V258.817Z" fill="#EAEFE8"/>
<path d="M67.7388 263.084C66.997 263.084 66.3393 262.604 66.2072 261.922C66.0584 261.157 66.6245 260.428 67.4716 260.293C68.4302 260.141 164.968 244.99 307.065 235.881C390.519 230.53 473.137 228.277 552.615 229.187C651.978 230.324 746.698 236.431 834.144 247.341C834.996 247.447 835.591 248.157 835.474 248.926C835.356 249.695 834.57 250.23 833.719 250.127C746.4 239.233 651.809 233.134 552.576 231.999C473.181 231.092 390.653 233.341 307.285 238.686C165.347 247.786 68.9665 262.912 68.0098 263.063C67.9188 263.078 67.8279 263.084 67.7388 263.084Z" fill="#161616"/>
<path d="M598.295 148.429L534.554 133.978C534.554 133.978 529.976 125.94 537.383 123.186L595.222 134.362C595.222 134.362 602.555 141.063 598.295 148.429Z" fill="white"/>
<path d="M598.295 149.835C598.17 149.835 598.042 149.821 597.916 149.793L534.174 135.343C533.74 135.244 533.373 134.982 533.168 134.622C533.061 134.432 530.539 129.928 532.121 126.046C532.893 124.151 534.464 122.752 536.789 121.886C537.08 121.778 537.4 121.752 537.708 121.811L595.548 132.987C595.845 133.044 596.116 133.179 596.33 133.374C596.413 133.45 598.375 135.26 599.775 138.053C601.681 141.858 601.647 145.671 599.675 149.08C599.402 149.552 598.864 149.835 598.295 149.835ZM535.667 132.781L597.414 146.779C599.615 141.58 595.562 136.844 594.408 135.642L537.553 124.657C536.288 125.21 535.464 125.985 535.044 127.016C534.204 129.077 535.162 131.665 535.667 132.781Z" fill="#161616"/>
<path d="M510.12 153.115V243.665L701.96 285.245V188.949L510.12 153.115Z" fill="#EAEFE8"/>
<path d="M702.271 286.651C702.151 286.651 702.028 286.639 701.908 286.612L510.068 245.032C509.368 244.88 508.874 244.316 508.874 243.665V153.115C508.874 152.692 509.085 152.291 509.449 152.025C509.811 151.757 510.287 151.651 510.747 151.738L702.587 187.572C703.31 187.707 703.829 188.282 703.829 188.949V285.245C703.829 285.676 703.61 286.082 703.236 286.349C702.958 286.546 702.618 286.651 702.271 286.651ZM511.989 242.556L700.714 283.461V190.094L511.989 154.841V242.556Z" fill="#161616"/>
<path d="M701.96 188.948L768.929 162.587L769.135 253.979L701.96 285.245V188.948Z" fill="#EAEFE8"/>
<path d="M702.271 286.651C701.99 286.651 701.71 286.583 701.461 286.446C700.997 286.191 700.714 285.735 700.714 285.245V188.949C700.714 188.39 701.081 187.884 701.648 187.66L768.461 161.299C768.941 161.11 769.494 161.15 769.935 161.41C770.375 161.669 770.641 162.11 770.642 162.584L770.926 253.976C770.928 254.503 770.601 254.987 770.082 255.229L702.985 286.495C702.761 286.599 702.516 286.651 702.271 286.651ZM703.829 189.868V282.937L767.809 253.124L767.534 164.734L703.829 189.868Z" fill="#161616"/>
<path d="M510.672 153.114L594.628 130.164L769.108 162.587L702.318 188.948L510.672 153.114Z" fill="#EAEFE8"/>
<path d="M702.319 190.355C702.213 190.355 702.108 190.345 702.003 190.325L510.356 154.492C509.658 154.361 509.148 153.821 509.116 153.178C509.084 152.535 509.539 151.955 510.22 151.769L594.177 128.819C594.426 128.751 594.69 128.739 594.942 128.787L769.422 161.21C770.086 161.333 770.586 161.831 770.657 162.44C770.727 163.049 770.353 163.63 769.732 163.876L702.943 190.237C702.745 190.315 702.532 190.355 702.319 190.355ZM516.983 152.859L702.149 187.481L763.992 163.072L594.701 131.613L516.983 152.859Z" fill="#161616"/>
<path d="M702.271 223.016C702.15 223.016 702.028 223.003 701.909 222.977L510.31 181.636C509.473 181.456 508.957 180.697 509.157 179.942C509.357 179.186 510.197 178.721 511.033 178.901L702.102 220.127L766.389 192.772C767.167 192.441 768.094 192.742 768.461 193.445C768.827 194.147 768.494 194.985 767.716 195.316L702.935 222.881C702.726 222.971 702.499 223.016 702.271 223.016Z" fill="#161616"/>
<path d="M702.271 256.781C702.155 256.781 702.04 256.769 701.926 256.746L510.086 217.389C509.247 217.217 508.722 216.464 508.913 215.707C509.103 214.949 509.935 214.471 510.776 214.647L702.078 253.893L768.421 224.407C769.191 224.063 770.124 224.351 770.505 225.048C770.885 225.744 770.568 226.587 769.795 226.931L702.958 256.636C702.743 256.732 702.508 256.781 702.271 256.781Z" fill="#161616"/>
<path d="M683.274 204.92C680.355 204.92 677.98 202.775 677.98 200.139C677.98 197.503 680.355 195.358 683.274 195.358C686.194 195.358 688.569 197.503 688.569 200.139C688.569 202.775 686.194 204.92 683.274 204.92ZM683.274 198.17C682.072 198.17 681.094 199.053 681.094 200.139C681.094 201.225 682.072 202.108 683.274 202.108C684.476 202.108 685.454 201.225 685.454 200.139C685.454 199.053 684.476 198.17 683.274 198.17Z" fill="#161616"/>
<path d="M679.537 242.042C676.618 242.042 674.243 239.897 674.243 237.261C674.243 234.625 676.618 232.48 679.537 232.48C682.456 232.48 684.831 234.625 684.831 237.261C684.831 239.897 682.456 242.042 679.537 242.042ZM679.537 235.292C678.335 235.292 677.357 236.175 677.357 237.261C677.357 238.347 678.335 239.23 679.537 239.23C680.739 239.23 681.717 238.347 681.717 237.261C681.717 236.175 680.739 235.292 679.537 235.292Z" fill="#161616"/>
<path d="M526.314 208.294C523.395 208.294 521.02 206.15 521.02 203.513C521.02 200.877 523.395 198.733 526.314 198.733C529.233 198.733 531.608 200.877 531.608 203.513C531.608 206.15 529.233 208.294 526.314 208.294ZM526.314 201.545C525.112 201.545 524.134 202.428 524.134 203.513C524.134 204.599 525.112 205.482 526.314 205.482C527.516 205.482 528.494 204.599 528.494 203.513C528.494 202.428 527.516 201.545 526.314 201.545Z" fill="#161616"/>
<path d="M526.314 237.543C523.395 237.543 521.02 235.398 521.02 232.762C521.02 230.126 523.395 227.981 526.314 227.981C529.233 227.981 531.608 230.126 531.608 232.762C531.608 235.398 529.233 237.543 526.314 237.543ZM526.314 230.793C525.112 230.793 524.134 231.676 524.134 232.762C524.134 233.847 525.112 234.73 526.314 234.73C527.516 234.73 528.494 233.847 528.494 232.762C528.494 231.676 527.516 230.793 526.314 230.793Z" fill="#161616"/>
<path d="M531.842 175.755L468.1 161.305C468.1 161.305 463.523 153.267 470.929 150.512L528.769 161.688C528.769 161.687 536.102 168.389 531.842 175.755Z" fill="white"/>
<path d="M531.842 177.161C531.717 177.161 531.589 177.147 531.463 177.118L467.721 162.669C467.286 162.57 466.92 162.308 466.715 161.948C466.608 161.758 464.086 157.254 465.668 153.372C466.44 151.476 468.011 150.077 470.336 149.212C470.627 149.104 470.947 149.077 471.255 149.137L529.095 160.313C529.392 160.37 529.663 160.505 529.877 160.7C529.96 160.776 531.922 162.587 533.322 165.38C535.228 169.185 535.193 172.998 533.222 176.406C532.949 176.878 532.411 177.161 531.842 177.161ZM469.213 160.107L530.96 174.105C533.161 168.905 529.108 164.169 527.955 162.967L471.1 151.982C469.834 152.535 469.01 153.31 468.591 154.342C467.751 156.403 468.709 158.991 469.213 160.107Z" fill="#161616"/>
<path d="M550.606 158.994C550.606 158.994 563.27 110.989 576.869 109.21C590.469 107.43 606.28 124.866 606.28 124.866L630.276 74.6841C630.276 74.6841 642.612 59.0595 665.434 64.6835C688.257 70.3076 708.369 118.691 708.369 118.691C708.369 118.691 734.015 120.875 738.23 133.558C742.445 146.24 747.405 169.454 747.405 169.454L702.318 187.261L550.606 158.994Z" fill="#8DC73F"/>
<path d="M649.005 131.572C648.321 131.572 647.694 131.161 647.504 130.538L644.09 119.333C644.015 119.084 644.016 118.82 644.096 118.571C644.124 118.482 644.153 118.392 644.181 118.302C644.173 118.314 644.167 118.327 644.16 118.339C643.751 119.022 642.804 119.277 642.05 118.909C640.518 118.163 632.824 114.271 631.809 110.931C631.563 110.123 631.668 109.342 632.111 108.675C632.614 107.917 633.423 107.446 634.389 107.348C636.34 107.152 638.845 108.601 640.855 110.084C640.8 107.85 641.101 105.229 642.541 103.786C643.357 102.969 644.449 102.574 645.695 102.652C646.718 102.713 647.578 103.158 648.184 103.938C650.628 107.084 648.031 116.304 647.208 118.966L650.507 129.791C650.735 130.54 650.248 131.314 649.419 131.52C649.281 131.555 649.141 131.572 649.005 131.572ZM634.794 110.134C634.822 110.87 637.772 113.628 643.528 116.434C644.085 116.705 644.385 117.239 644.342 117.774C645.83 112.811 646.72 106.951 645.634 105.553C645.564 105.463 645.545 105.462 645.488 105.458C645.15 105.441 644.999 105.524 644.854 105.67C643.714 106.809 643.864 110.944 644.323 113.38C644.438 113.989 644.1 114.594 643.489 114.872C642.878 115.149 642.139 115.036 641.665 114.591C639.129 112.209 635.937 110.131 634.859 110.131C634.836 110.132 634.815 110.132 634.794 110.134Z" fill="#161616"/>
<path d="M587.965 150.133C587.281 150.133 586.654 149.723 586.464 149.099L583.05 137.895C582.974 137.646 582.976 137.381 583.055 137.133C583.084 137.043 583.112 136.954 583.14 136.863C583.133 136.876 583.127 136.888 583.119 136.9C582.71 137.583 581.763 137.839 581.01 137.47C579.477 136.724 571.784 132.833 570.769 129.493C570.523 128.684 570.627 127.904 571.071 127.236C571.574 126.479 572.382 126.007 573.349 125.909C575.303 125.712 577.806 127.162 579.814 128.646C579.76 126.411 580.06 123.791 581.501 122.348C582.317 121.53 583.41 121.137 584.655 121.213C585.678 121.275 586.538 121.719 587.144 122.499C589.588 125.645 586.991 134.865 586.168 137.527L589.467 148.353C589.695 149.101 589.208 149.875 588.379 150.081C588.24 150.117 588.101 150.133 587.965 150.133ZM573.754 128.696C573.782 129.431 576.732 132.19 582.488 134.995C583.045 135.266 583.344 135.8 583.302 136.335C584.789 131.372 585.68 125.513 584.594 124.115C584.524 124.025 584.505 124.023 584.448 124.019C584.11 124.002 583.959 124.086 583.814 124.231C582.674 125.37 582.823 129.506 583.283 131.942C583.398 132.55 583.06 133.156 582.449 133.433C581.838 133.711 581.098 133.598 580.625 133.152C578.035 130.719 574.747 128.589 573.754 128.696Z" fill="#161616"/>
<path d="M640.624 150.373C640.298 150.373 639.97 150.281 639.689 150.091L629.406 143.105C629.177 142.949 629 142.739 628.894 142.498C628.856 142.412 628.818 142.325 628.779 142.239C628.782 142.252 628.785 142.266 628.787 142.279C628.927 143.046 628.352 143.769 627.503 143.895C625.785 144.15 617.061 145.313 613.998 143.229C613.256 142.725 612.812 142.049 612.711 141.276C612.597 140.399 612.918 139.579 613.616 138.969C615.022 137.739 617.992 137.5 620.586 137.568C619.032 135.829 617.496 133.589 617.661 131.651C617.753 130.554 618.351 129.642 619.39 129.013C620.241 128.498 621.224 128.375 622.23 128.658C626.293 129.799 630.476 138.532 631.626 141.092L641.561 147.842C642.249 148.309 642.386 149.19 641.869 149.811C641.564 150.18 641.097 150.373 640.624 150.373ZM627.253 141.101C627.783 141.101 628.267 141.345 628.551 141.731C626.369 136.981 623.111 131.851 621.305 131.343C621.188 131.309 621.172 131.32 621.126 131.349C620.849 131.517 620.783 131.671 620.767 131.867C620.636 133.403 623.552 136.591 625.563 138.262C626.067 138.68 626.208 139.346 625.913 139.903C625.618 140.46 624.959 140.78 624.278 140.688C620.583 140.191 616.56 140.324 615.823 140.951C616.535 141.781 621.927 141.871 626.998 141.12C627.084 141.107 627.169 141.101 627.253 141.101Z" fill="#161616"/>
<path d="M669.812 97.4104C668.98 97.4104 668.291 96.817 668.257 96.0604L667.745 84.449C667.733 84.1902 667.802 83.9332 667.941 83.7077C667.991 83.6267 668.041 83.5462 668.09 83.4647C668.081 83.4748 668.072 83.4844 668.062 83.4939C667.493 84.0755 666.508 84.1318 665.865 83.6177C664.559 82.5771 658.043 77.2112 657.893 73.7504C657.857 72.9129 658.154 72.1738 658.754 71.6147C659.434 70.9808 660.334 70.6884 661.306 70.789C663.25 70.9943 665.331 72.9213 666.916 74.7786C667.424 72.5912 668.375 70.1 670.14 68.9897C671.14 68.3614 672.302 68.2028 673.498 68.5313C674.478 68.8007 675.204 69.4099 675.599 70.2929C677.189 73.8578 672.344 82.3066 670.874 84.7302L671.369 95.9485C671.404 96.7247 670.735 97.3789 669.876 97.4098C669.853 97.4098 669.833 97.4104 669.812 97.4104ZM661.001 73.5845C660.738 74.607 664.071 78.4351 667.926 81.509C668.399 81.887 668.558 82.4663 668.382 82.9781C671.077 78.4486 673.415 72.9264 672.709 71.3425C672.663 71.2407 672.644 71.2362 672.59 71.2204C672.269 71.1333 672.096 71.1844 671.919 71.2969C670.519 72.1772 669.627 76.2331 669.467 78.6967C669.426 79.3131 668.945 79.8334 668.281 79.9797C667.615 80.1248 666.923 79.8627 666.574 79.3328C664.663 76.4339 662.006 73.7037 661.001 73.5845Z" fill="#161616"/>
<path d="M686.958 142.865C686.949 142.865 686.939 142.865 686.93 142.865C686.07 142.865 685.385 142.084 685.4 141.307L685.627 129.625C685.633 129.366 685.717 129.082 685.87 128.863C685.926 128.785 685.981 128.69 686.037 128.611C686.026 128.622 686.016 128.623 686.005 128.633C685.399 129.185 684.413 129.184 683.803 128.638C682.566 127.532 676.402 121.836 676.472 118.374C676.488 117.535 676.832 116.812 677.467 116.285C678.186 115.687 679.109 115.441 680.067 115.592C681.996 115.898 683.951 117.928 685.415 119.865C686.061 117.708 687.168 115.269 689.002 114.252C690.039 113.676 691.21 113.579 692.382 113.968C693.344 114.288 694.031 114.934 694.368 115.836C695.729 119.478 690.355 127.661 688.734 130.004L688.514 141.357C688.5 142.125 687.805 142.865 686.958 142.865ZM679.585 118.367C679.258 119.374 682.341 123.368 685.994 126.636C686.444 127.039 686.565 127.627 686.356 128.129C689.335 123.747 692.022 118.353 691.416 116.735C691.378 116.63 691.359 116.625 691.306 116.606C690.99 116.502 690.815 116.546 690.63 116.648C689.177 117.454 688.029 121.458 687.712 123.908C687.633 124.522 687.119 125.017 686.447 125.128C685.773 125.239 685.099 124.941 684.784 124.393C683.06 121.4 680.581 118.537 679.585 118.367Z" fill="#161616"/>
<path d="M654.311 134.147C653.451 134.147 652.754 133.518 652.754 132.741V127.116C652.754 126.339 653.451 125.71 654.311 125.71C655.172 125.71 655.869 126.339 655.869 127.116V132.741C655.869 133.518 655.172 134.147 654.311 134.147Z" fill="#161616"/>
<path d="M693.046 147.084C692.878 147.084 692.708 147.059 692.54 147.007C691.727 146.755 691.294 145.955 691.574 145.22L693.948 138.985C694.227 138.25 695.112 137.859 695.926 138.112C696.74 138.364 697.173 139.164 696.893 139.899L694.519 146.134C694.297 146.718 693.693 147.084 693.046 147.084Z" fill="#161616"/>
<path d="M679.538 170.989C678.941 170.989 678.371 170.676 678.113 170.151L674.688 163.156C674.339 162.445 674.695 161.616 675.482 161.301C676.265 160.987 677.187 161.308 677.535 162.019L680.961 169.013C681.309 169.724 680.954 170.553 680.167 170.868C679.963 170.95 679.748 170.989 679.538 170.989Z" fill="#161616"/>
<path d="M684.832 169.583C684.179 169.583 683.572 169.21 683.354 168.621L681.486 163.559C681.213 162.821 681.654 162.025 682.47 161.78C683.288 161.535 684.168 161.933 684.44 162.669L686.309 167.731C686.581 168.468 686.14 169.265 685.324 169.51C685.16 169.559 684.995 169.583 684.832 169.583Z" fill="#161616"/>
<path d="M582.372 151.918C581.767 151.918 581.192 151.598 580.939 151.064L578.649 146.23C578.31 145.516 578.677 144.69 579.468 144.384C580.259 144.081 581.174 144.41 581.512 145.124L583.803 149.958C584.141 150.672 583.774 151.498 582.984 151.804C582.784 151.881 582.576 151.918 582.372 151.918Z" fill="#161616"/>
<path d="M636.559 154.521C636.28 154.521 635.997 154.454 635.742 154.311L631.07 151.708C630.338 151.3 630.112 150.434 630.564 149.773C631.015 149.112 631.976 148.907 632.707 149.315L637.378 151.919C638.11 152.327 638.337 153.193 637.884 153.854C637.591 154.284 637.081 154.521 636.559 154.521Z" fill="#161616"/>
<path d="M717.843 142.021C716.983 142.021 716.286 141.392 716.286 140.615V134.428C716.286 133.651 716.983 133.022 717.843 133.022C718.703 133.022 719.4 133.651 719.4 134.428V140.615C719.4 141.392 718.703 142.021 717.843 142.021Z" fill="#161616"/>
<path d="M722.516 142.022C722.424 142.022 722.33 142.014 722.236 141.999C721.39 141.86 720.828 141.128 720.982 140.364L722.228 134.177C722.381 133.413 723.192 132.907 724.038 133.045C724.884 133.184 725.446 133.916 725.292 134.68L724.046 140.867C723.909 141.546 723.254 142.022 722.516 142.022Z" fill="#161616"/>
<path d="M674.245 97.5873C674.198 97.5873 674.15 97.5857 674.102 97.5812C673.246 97.5109 672.615 96.8269 672.693 96.0535L673.316 89.8664C673.393 89.0931 674.157 88.5188 675.007 88.5936C675.864 88.6639 676.495 89.3479 676.417 90.1212L675.794 96.3083C675.72 97.0384 675.041 97.5873 674.245 97.5873Z" fill="#161616"/>
<path d="M111.825 322.998L296.231 277.902C296.231 277.902 328.005 283.033 320.675 333.051L136.135 392.497" fill="#161616"/>
<path d="M136.135 393.903C135.495 393.903 134.895 393.544 134.669 392.969C134.38 392.237 134.802 391.433 135.612 391.172L319.252 332.015C321.179 318.116 321.034 299.445 310.011 287.625C304.194 281.388 297.751 279.673 296.271 279.349L112.232 324.354C111.401 324.559 110.547 324.114 110.322 323.365C110.097 322.615 110.588 321.843 111.418 321.64L295.824 276.545C296.045 276.49 296.278 276.48 296.505 276.518C296.852 276.574 305.087 277.98 312.393 285.813C324.375 298.661 324.349 318.692 322.218 333.235C322.142 333.757 321.748 334.198 321.198 334.374L136.658 393.821C136.486 393.876 136.309 393.903 136.135 393.903Z" fill="#161616"/>
<path d="M117.354 396.629C139.871 396.629 158.124 380.146 158.124 359.813C158.124 339.481 139.871 322.997 117.354 322.997C94.8383 322.997 76.5853 339.481 76.5853 359.813C76.5853 380.146 94.8383 396.629 117.354 396.629Z" fill="#DEE5DC"/>
<path d="M117.354 398.035C94.0153 398.035 75.0281 380.889 75.0281 359.813C75.0281 338.737 94.0153 321.591 117.354 321.591C140.693 321.591 159.681 338.737 159.681 359.813C159.681 380.889 140.693 398.035 117.354 398.035ZM117.354 324.403C95.7331 324.403 78.1424 340.288 78.1424 359.813C78.1424 379.338 95.7331 395.223 117.354 395.223C138.976 395.223 156.566 379.338 156.566 359.813C156.566 340.288 138.976 324.403 117.354 324.403Z" fill="#161616"/>
<path d="M117.354 370.291C123.762 370.291 128.957 365.6 128.957 359.813C128.957 354.027 123.762 349.336 117.354 349.336C110.946 349.336 105.752 354.027 105.752 359.813C105.752 365.6 110.946 370.291 117.354 370.291Z" fill="#EAEFE8"/>
<path d="M117.354 371.697C110.098 371.697 104.195 366.366 104.195 359.813C104.195 353.26 110.098 347.929 117.354 347.929C124.611 347.929 130.514 353.26 130.514 359.813C130.514 366.366 124.611 371.697 117.354 371.697ZM117.354 350.742C111.815 350.742 107.309 354.811 107.309 359.813C107.309 364.815 111.815 368.884 117.354 368.884C122.893 368.884 127.4 364.815 127.4 359.813C127.4 354.811 122.893 350.742 117.354 350.742Z" fill="#161616"/>
<path d="M191.11 346.045L375.517 300.95C375.517 300.95 407.29 306.081 399.96 356.098L215.421 415.545" fill="#161616"/>
<path d="M215.421 416.951C214.782 416.951 214.182 416.592 213.955 416.017C213.666 415.285 214.088 414.481 214.899 414.221L398.539 355.064C400.465 341.164 400.321 322.494 389.297 310.674C383.481 304.436 377.037 302.721 375.557 302.398L191.518 347.403C190.688 347.606 189.832 347.163 189.608 346.413C189.384 345.663 189.874 344.891 190.704 344.688L375.111 299.593C375.332 299.538 375.565 299.529 375.791 299.566C376.138 299.622 384.373 301.028 391.679 308.862C403.661 321.71 403.636 341.741 401.505 356.283C401.428 356.806 401.034 357.246 400.484 357.423L215.944 416.869C215.771 416.925 215.595 416.951 215.421 416.951Z" fill="#161616"/>
<path d="M196.64 419.677C219.156 419.677 237.409 403.194 237.409 382.861C237.409 362.528 219.156 346.045 196.64 346.045C174.124 346.045 155.871 362.528 155.871 382.861C155.871 403.194 174.124 419.677 196.64 419.677Z" fill="#DEE5DC"/>
<path d="M196.64 421.084C173.301 421.084 154.314 403.938 154.314 382.862C154.314 361.786 173.301 344.64 196.64 344.64C219.979 344.64 238.966 361.786 238.966 382.862C238.966 403.938 219.979 421.084 196.64 421.084ZM196.64 347.451C175.019 347.451 157.428 363.336 157.428 382.861C157.428 402.386 175.019 418.271 196.64 418.271C218.261 418.271 235.852 402.386 235.852 382.861C235.852 363.336 218.261 347.451 196.64 347.451Z" fill="#161616"/>
<path d="M196.64 393.339C203.048 393.339 208.242 388.648 208.242 382.861C208.242 377.074 203.048 372.384 196.64 372.384C190.232 372.384 185.037 377.074 185.037 382.861C185.037 388.648 190.232 393.339 196.64 393.339Z" fill="#EAEFE8"/>
<path d="M196.64 394.745C189.384 394.745 183.48 389.414 183.48 382.861C183.48 376.308 189.384 370.977 196.64 370.977C203.896 370.977 209.8 376.308 209.8 382.861C209.8 389.414 203.896 394.745 196.64 394.745ZM196.64 373.79C191.101 373.79 186.595 377.859 186.595 382.861C186.595 387.863 191.101 391.933 196.64 391.933C202.179 391.933 206.685 387.863 206.685 382.861C206.685 377.859 202.179 373.79 196.64 373.79Z" fill="#161616"/>
<path d="M272.025 355.364L456.431 310.268C456.431 310.268 488.206 315.399 480.875 365.416L296.336 424.862" fill="#161616"/>
<path d="M296.336 426.269C295.696 426.269 295.096 425.91 294.87 425.335C294.581 424.603 295.003 423.799 295.813 423.538L479.453 364.381C482.164 344.853 479.024 329.568 470.354 320.146C464.541 313.826 457.966 312.052 456.468 311.716L272.433 356.721C271.602 356.926 270.748 356.481 270.523 355.731C270.298 354.982 270.789 354.21 271.62 354.007L456.026 308.911C456.247 308.857 456.48 308.847 456.707 308.884C457.054 308.941 465.289 310.347 472.595 318.18C484.577 331.028 484.551 351.059 482.42 365.601C482.343 366.124 481.949 366.564 481.399 366.741L296.858 426.187C296.686 426.243 296.509 426.269 296.336 426.269Z" fill="#161616"/>
<path d="M277.555 428.995C300.071 428.995 318.324 412.512 318.324 392.179C318.324 371.846 300.071 355.363 277.555 355.363C255.039 355.363 236.786 371.846 236.786 392.179C236.786 412.512 255.039 428.995 277.555 428.995Z" fill="#DEE5DC"/>
<path d="M277.555 430.401C254.215 430.401 235.228 413.255 235.228 392.179C235.228 371.103 254.215 353.957 277.555 353.957C300.894 353.957 319.881 371.103 319.881 392.179C319.881 413.255 300.893 430.401 277.555 430.401ZM277.555 356.769C255.933 356.769 238.343 372.654 238.343 392.179C238.343 411.705 255.933 427.589 277.555 427.589C299.176 427.589 316.767 411.705 316.767 392.179C316.767 372.654 299.176 356.769 277.555 356.769Z" fill="#161616"/>
<path d="M277.555 402.656C283.963 402.656 289.158 397.966 289.158 392.179C289.158 386.392 283.963 381.701 277.555 381.701C271.147 381.701 265.952 386.392 265.952 392.179C265.952 397.966 271.147 402.656 277.555 402.656Z" fill="#EAEFE8"/>
<path d="M277.555 404.063C270.298 404.063 264.395 398.732 264.395 392.179C264.395 385.627 270.298 380.296 277.555 380.296C284.811 380.296 290.714 385.627 290.714 392.179C290.714 398.732 284.811 404.063 277.555 404.063ZM277.555 383.108C272.016 383.108 267.509 387.177 267.509 392.179C267.509 397.181 272.016 401.251 277.555 401.251C283.094 401.251 287.6 397.181 287.6 392.179C287.6 387.177 283.094 383.108 277.555 383.108Z" fill="#161616"/>
<path d="M177.033 265.789L365.035 235.107C365.035 235.107 396.207 242.674 384.165 291.942L194.67 336.912" fill="#161616"/>
<path d="M194.669 338.319C193.979 338.319 193.348 337.901 193.164 337.27C192.945 336.518 193.442 335.749 194.274 335.552L382.846 290.801C387.397 271.554 385.716 256.083 377.972 246.024C372.778 239.279 366.396 237.003 364.934 236.553L177.311 267.173C176.466 267.313 175.655 266.804 175.501 266.039C175.348 265.275 175.911 264.543 176.757 264.405L364.758 233.723C364.986 233.687 365.217 233.695 365.44 233.749C365.78 233.831 373.852 235.87 380.388 244.238C391.11 257.965 389.186 277.921 385.685 292.245C385.559 292.76 385.125 293.168 384.56 293.302L195.066 338.272C194.933 338.303 194.8 338.319 194.669 338.319Z" fill="#161616"/>
<path d="M179.056 339.714C201.572 339.714 219.825 323.23 219.825 302.898C219.825 282.565 201.572 266.082 179.056 266.082C156.539 266.082 138.286 282.565 138.286 302.898C138.286 323.23 156.539 339.714 179.056 339.714Z" fill="#DEE5DC"/>
<path d="M179.102 341.122C177.886 341.122 176.652 341.074 175.434 340.98C152.181 339.176 134.888 320.625 136.884 299.627C137.797 290.03 142.634 281.172 150.505 274.68C158.33 268.226 168.453 264.672 179.009 264.672C180.225 264.672 181.459 264.72 182.677 264.815C205.93 266.618 223.224 285.169 221.227 306.167C220.314 315.764 215.477 324.623 207.605 331.115C199.781 337.568 189.658 341.122 179.102 341.122ZM179.009 267.486C169.232 267.486 159.855 270.778 152.605 276.757C145.314 282.77 140.833 290.978 139.987 299.868C138.137 319.322 154.158 336.507 175.7 338.178C176.829 338.265 177.974 338.31 179.101 338.31C188.878 338.31 198.255 335.017 205.505 329.038C212.797 323.025 217.278 314.817 218.124 305.927C219.974 286.474 203.953 269.288 182.41 267.618C181.281 267.53 180.137 267.486 179.009 267.486Z" fill="#161616"/>
<path d="M179.056 313.375C185.464 313.375 190.658 308.684 190.658 302.898C190.658 297.111 185.464 292.42 179.056 292.42C172.648 292.42 167.453 297.111 167.453 302.898C167.453 308.684 172.648 313.375 179.056 313.375Z" fill="#EAEFE8"/>
<path d="M179.07 314.781C178.692 314.781 178.308 314.767 177.93 314.737C174.427 314.466 171.252 312.979 168.989 310.551C166.725 308.123 165.643 305.044 165.944 301.881C166.523 295.787 172.277 291.014 179.042 291.014C179.42 291.014 179.804 291.028 180.182 291.058C183.684 291.329 186.859 292.817 189.123 295.245C191.387 297.672 192.468 300.752 192.168 303.914C191.588 310.008 185.834 314.781 179.07 314.781ZM179.042 293.826C173.88 293.826 169.489 297.47 169.047 302.122C168.818 304.536 169.643 306.887 171.371 308.74C173.1 310.594 175.524 311.728 178.196 311.936C178.487 311.958 178.781 311.97 179.07 311.97C184.232 311.97 188.622 308.326 189.065 303.674C189.294 301.26 188.468 298.91 186.741 297.056C185.012 295.202 182.589 294.068 179.915 293.86C179.625 293.837 179.331 293.826 179.042 293.826Z" fill="#161616"/>
<path d="M234.657 215.691L424.471 196.102C424.471 196.102 455.031 205.482 439.471 253.938L247.141 287.697" fill="#161616"/>
<path d="M247.138 289.104C246.408 289.104 245.756 288.637 245.612 287.966C245.448 287.204 245.999 286.466 246.843 286.317L438.236 252.722C444.162 233.783 443.597 218.247 436.593 207.755C431.896 200.719 425.691 198.073 424.266 197.539L234.834 217.088C233.982 217.183 233.208 216.622 233.11 215.851C233.012 215.079 233.626 214.382 234.48 214.294L424.294 194.706C424.522 194.682 424.754 194.704 424.971 194.771C425.305 194.874 433.212 197.38 439.133 206.115C448.844 220.442 445.49 240.242 440.966 254.33C440.803 254.836 440.34 255.218 439.767 255.319L247.437 289.078C247.337 289.095 247.237 289.104 247.138 289.104Z" fill="#161616"/>
<path d="M234.005 289.656C256.521 289.656 274.774 273.172 274.774 252.84C274.774 232.507 256.521 216.024 234.005 216.024C211.489 216.024 193.236 232.507 193.236 252.84C193.236 273.172 211.489 289.656 234.005 289.656Z" fill="#DEE5DC"/>
<path d="M234.056 291.067C231.927 291.067 229.772 290.919 227.652 290.629C216.475 289.097 206.627 283.726 199.922 275.504C193.218 267.283 190.461 257.197 192.159 247.103C193.688 238.009 198.794 229.719 206.537 223.759C214.201 217.861 223.939 214.612 233.955 214.612C236.084 214.612 238.238 214.76 240.358 215.05C263.433 218.214 279.355 237.74 275.851 258.576C274.323 267.67 269.217 275.959 261.474 281.919C253.81 287.818 244.072 291.067 234.056 291.067ZM233.955 217.425C224.678 217.425 215.658 220.435 208.557 225.9C201.384 231.421 196.654 239.101 195.237 247.525C193.665 256.876 196.22 266.22 202.43 273.837C208.641 281.453 217.764 286.429 228.119 287.848C230.086 288.117 232.082 288.255 234.056 288.255C243.333 288.255 252.353 285.244 259.454 279.779C266.626 274.259 271.356 266.579 272.772 258.155C276.018 238.851 261.268 220.762 239.891 217.831C237.925 217.561 235.928 217.425 233.955 217.425Z" fill="#161616"/>
<path d="M234.005 263.318C240.413 263.318 245.608 258.626 245.608 252.84C245.608 247.053 240.413 242.361 234.005 242.361C227.597 242.361 222.402 247.053 222.402 252.84C222.402 258.626 227.597 263.318 234.005 263.318Z" fill="#EAEFE8"/>
<path d="M234.021 264.724C233.359 264.724 232.689 264.678 232.029 264.588C224.856 263.604 219.905 257.534 220.994 251.055C221.963 245.297 227.551 240.955 233.992 240.955C234.653 240.955 235.322 241 235.98 241.09C243.154 242.074 248.105 248.145 247.016 254.624C246.048 260.382 240.461 264.724 234.021 264.724ZM233.992 243.767C229.077 243.767 224.813 247.083 224.073 251.478C223.242 256.423 227.021 261.056 232.497 261.807C233.002 261.876 233.514 261.912 234.021 261.912C238.935 261.912 243.198 258.597 243.937 254.202C244.767 249.257 240.989 244.623 235.512 243.872C235.009 243.802 234.497 243.767 233.992 243.767Z" fill="#161616"/>
<path d="M255.776 283.934L443.778 253.252C443.778 253.252 474.95 260.819 462.907 310.087L273.413 355.057" fill="#161616"/>
<path d="M273.412 356.464C272.722 356.464 272.091 356.046 271.907 355.415C271.688 354.664 272.185 353.895 273.017 353.697L461.588 308.946C464.824 295.246 466.45 276.633 456.587 264.005C451.382 257.341 445.125 255.135 443.68 254.697L256.053 285.318C255.208 285.458 254.397 284.949 254.243 284.184C254.09 283.42 254.653 282.688 255.499 282.55L443.502 251.869C443.727 251.833 443.96 251.84 444.183 251.894C444.523 251.977 452.595 254.014 459.132 262.383C469.853 276.11 467.929 296.066 464.428 310.39C464.303 310.905 463.868 311.313 463.303 311.447L273.809 356.417C273.676 356.449 273.543 356.464 273.412 356.464Z" fill="#161616"/>
<path d="M257.798 357.858C280.314 357.858 298.567 341.375 298.567 321.042C298.567 300.709 280.314 284.226 257.798 284.226C235.282 284.226 217.029 300.709 217.029 321.042C217.029 341.375 235.282 357.858 257.798 357.858Z" fill="#DEE5DC"/>
<path d="M257.844 359.267C256.628 359.267 255.394 359.219 254.176 359.125C242.911 358.251 232.698 353.469 225.417 345.659C218.136 337.848 214.659 327.945 215.627 317.773C216.539 308.176 221.376 299.317 229.247 292.825C237.071 286.372 247.195 282.818 257.751 282.818C258.967 282.818 260.201 282.866 261.418 282.961C272.683 283.835 282.896 288.617 290.177 296.427C297.458 304.237 300.935 314.141 299.968 324.313C299.055 333.91 294.218 342.768 286.348 349.26C278.524 355.713 268.401 359.267 257.844 359.267ZM257.752 285.631C247.974 285.631 238.597 288.923 231.347 294.902C224.056 300.915 219.575 309.122 218.73 318.013C217.833 327.437 221.055 336.611 227.8 343.847C234.545 351.083 244.007 355.513 254.442 356.323C255.572 356.41 256.716 356.455 257.844 356.455C267.621 356.455 276.998 353.162 284.248 347.184C291.539 341.171 296.02 332.963 296.866 324.073C297.762 314.649 294.541 305.474 287.796 298.238C281.051 291.002 271.588 286.572 261.153 285.763C260.023 285.675 258.879 285.631 257.752 285.631Z" fill="#161616"/>
<path d="M257.798 331.52C264.206 331.52 269.4 326.829 269.4 321.042C269.4 315.255 264.206 310.565 257.798 310.565C251.39 310.565 246.195 315.255 246.195 321.042C246.195 326.829 251.39 331.52 257.798 331.52Z" fill="#EAEFE8"/>
<path d="M257.812 332.926C257.434 332.926 257.05 332.912 256.672 332.882C253.17 332.611 249.994 331.124 247.731 328.696C245.467 326.268 244.385 323.189 244.686 320.026C245.266 313.932 251.019 309.159 257.784 309.159C258.162 309.159 258.545 309.174 258.924 309.203C266.154 309.764 271.531 315.532 270.91 322.06C270.331 328.153 264.577 332.926 257.812 332.926ZM257.784 311.971C252.622 311.971 248.231 315.615 247.789 320.266C247.56 322.68 248.385 325.031 250.113 326.884C251.842 328.738 254.266 329.873 256.938 330.08C257.229 330.103 257.523 330.115 257.812 330.115C262.974 330.115 267.364 326.47 267.807 321.819C268.28 316.836 264.176 312.433 258.658 312.006C258.367 311.982 258.073 311.971 257.784 311.971Z" fill="#161616"/>
<path d="M307.817 362.064C307.272 362.064 306.772 361.739 306.618 361.241C306.433 360.644 306.819 360.023 307.482 359.855L465.339 319.958C466.002 319.791 466.689 320.139 466.874 320.739C467.06 321.336 466.673 321.957 466.01 322.125L308.153 362.022C308.041 362.05 307.928 362.064 307.817 362.064Z" fill="#AFB7AC"/>
<path d="M315.914 372.188C315.369 372.188 314.869 371.863 314.715 371.366C314.53 370.768 314.916 370.147 315.579 369.979L473.436 330.083C474.101 329.914 474.786 330.264 474.971 330.863C475.157 331.461 474.77 332.082 474.108 332.249L316.251 372.146C316.139 372.174 316.025 372.188 315.914 372.188Z" fill="#AFB7AC"/>
<path d="M324.012 386.249C323.475 386.249 322.979 385.933 322.818 385.444C322.622 384.848 322.998 384.222 323.657 384.045L476.532 343.024C477.189 342.846 477.885 343.187 478.08 343.782C478.276 344.378 477.901 345.004 477.241 345.18L324.367 386.202C324.249 386.234 324.129 386.249 324.012 386.249Z" fill="#AFB7AC"/>
<path d="M322.144 402.561C321.622 402.561 321.135 402.262 320.962 401.79C320.745 401.201 321.098 400.564 321.751 400.368L477.117 353.722C477.769 353.524 478.475 353.846 478.691 354.435C478.909 355.025 478.555 355.662 477.902 355.857L322.537 402.503C322.406 402.542 322.274 402.561 322.144 402.561Z" fill="#AFB7AC"/>
<path d="M292.352 289.916C291.767 289.916 291.245 289.543 291.13 289.006C290.999 288.395 291.441 287.805 292.116 287.687L446.958 260.574C447.634 260.458 448.287 260.854 448.419 261.464C448.549 262.074 448.108 262.664 447.433 262.783L292.591 289.896C292.51 289.91 292.43 289.916 292.352 289.916Z" fill="#AFB7AC"/>
<path d="M299.24 300.198C298.655 300.198 298.134 299.825 298.018 299.287C297.887 298.677 298.328 298.087 299.004 297.968L453.846 270.855C454.523 270.738 455.175 271.135 455.306 271.745C455.437 272.356 454.996 272.946 454.32 273.064L299.479 300.178C299.398 300.191 299.319 300.198 299.24 300.198Z" fill="#AFB7AC"/>
<path d="M305.787 314.254C305.21 314.254 304.693 313.891 304.569 313.361C304.427 312.753 304.858 312.157 305.531 312.029L455.691 283.485C456.362 283.356 457.025 283.747 457.167 284.354C457.309 284.962 456.878 285.559 456.204 285.686L306.045 314.23C305.958 314.247 305.872 314.254 305.787 314.254Z" fill="#AFB7AC"/>
<path d="M302.583 329.765C302.022 329.765 301.513 329.421 301.374 328.907C301.211 328.304 301.62 327.695 302.288 327.547L455.324 293.787C455.992 293.639 456.667 294.009 456.83 294.612C456.994 295.216 456.584 295.824 455.915 295.972L302.879 329.734C302.78 329.755 302.681 329.765 302.583 329.765Z" fill="#AFB7AC"/>
<path d="M279.265 226.606C278.642 226.606 278.105 226.186 278.029 225.614C277.948 224.997 278.436 224.438 279.119 224.364L423.876 208.792C424.557 208.723 425.179 209.159 425.26 209.776C425.342 210.393 424.854 210.953 424.17 211.027L279.413 226.598C279.364 226.604 279.313 226.606 279.265 226.606Z" fill="#AFB7AC"/>
<path d="M333.036 232.684C332.422 232.684 331.888 232.274 331.804 231.71C331.712 231.094 332.19 230.527 332.872 230.444L429.44 218.692C430.121 218.613 430.749 219.04 430.841 219.656C430.932 220.272 430.454 220.839 429.772 220.922L333.205 232.674C333.148 232.681 333.092 232.684 333.036 232.684Z" fill="#AFB7AC"/>
<path d="M289.834 249.859C289.22 249.859 288.685 249.449 288.601 248.885C288.509 248.27 288.987 247.703 289.669 247.62L430.218 230.445C430.897 230.36 431.527 230.792 431.619 231.408C431.711 232.024 431.234 232.591 430.552 232.674L290.003 249.849C289.946 249.856 289.889 249.859 289.834 249.859Z" fill="#AFB7AC"/>
<path d="M285.722 263.962C285.126 263.962 284.597 263.573 284.495 263.024C284.381 262.41 284.838 261.831 285.517 261.727L429.107 239.917C429.781 239.814 430.428 240.228 430.542 240.84C430.656 241.453 430.199 242.033 429.52 242.137L285.93 263.947C285.861 263.957 285.791 263.962 285.722 263.962Z" fill="#AFB7AC"/>
<path d="M415.812 193.297C414.2 193.297 412.465 193.056 410.654 192.581C410.546 192.552 410.441 192.513 410.342 192.464L382.551 178.719C381.624 178.293 358.901 167.373 358.698 127.323C358.696 126.79 359.026 126.302 359.553 126.061C360.08 125.821 360.711 125.87 361.185 126.188L397.383 150.508V101.816C397.383 101.232 397.782 100.709 398.385 100.502C398.99 100.294 399.672 100.444 400.102 100.88C404.682 105.519 418.193 117.558 425.614 117.558C426.761 117.558 427.67 117.26 428.393 116.647C428.846 116.262 429.508 116.158 430.078 116.381C430.648 116.604 431.017 117.111 431.017 117.671V173.903C430.886 180.628 427.539 193.297 415.812 193.297ZM411.685 189.922C413.153 190.295 414.541 190.484 415.812 190.484C427.443 190.484 427.903 174.044 427.903 173.879V120.075C427.28 120.272 426.43 120.37 425.614 120.37C417.635 120.37 405.799 110.289 400.497 105.368V153.307C400.497 153.838 400.165 154.325 399.639 154.563C399.112 154.801 398.483 154.752 398.01 154.434L361.869 130.152C362.247 140.938 364.615 155.093 373.007 166.304C378.457 173.585 383.955 176.208 384.01 176.234L411.685 189.922Z" fill="#161616"/>
<path d="M404.546 107.711C403.685 107.711 402.989 107.082 402.989 106.305V85.4739C401.6 82.931 395.053 70.2311 399.987 65.2871C404.874 60.3903 412.089 58.8267 412.394 58.762C412.918 58.6517 413.468 58.794 413.849 59.1377C414.229 59.4814 414.386 59.9786 414.263 60.4522C414.223 60.608 413.423 63.625 411.532 66.2247C413.42 67.1179 415.736 69.1912 416.287 74.0013C416.375 74.7736 415.753 75.4649 414.898 75.5442C414.04 75.6263 413.278 75.0633 413.189 74.2904C412.524 68.4864 408.919 68.3604 408.882 68.3598C408.26 68.3491 407.704 68.006 407.469 67.4858C407.233 66.9655 407.363 66.3693 407.799 65.9682C408.86 64.9935 409.689 63.607 410.273 62.3623C407.986 63.1992 404.754 64.7117 402.301 67.1702C399.463 70.014 403.024 79.3132 405.935 84.5064C406.046 84.7038 406.103 84.921 406.103 85.142V106.305C406.103 107.082 405.406 107.711 404.546 107.711Z" fill="#161616"/>
<path d="M423.854 115.024C422.994 115.024 422.297 114.394 422.297 113.617V92.4975C422.297 92.1308 422.456 91.7787 422.739 91.516L432.514 82.4604C433.114 81.9041 434.1 81.8934 434.716 82.4351C435.332 82.9773 435.344 83.8677 434.744 84.4234L425.411 93.0695V113.617C425.411 114.394 424.714 115.024 423.854 115.024Z" fill="#161616"/>
<path d="M464.547 90.1424C456.133 90.1424 445.765 85.3665 444.851 84.9368L413.94 72.4496C413.155 72.1323 412.803 71.3005 413.155 70.5918C413.506 69.8831 414.428 69.5653 415.212 69.8819L446.165 82.3866C446.195 82.3984 446.225 82.4113 446.253 82.4248C446.395 82.4912 460.504 89.1001 468.059 86.8964C469.701 86.4172 470.847 85.5577 471.561 84.2675C471.912 83.633 471.922 82.8911 471.59 81.9996C468.749 74.367 444.261 62.0581 435.066 57.96C420.148 50.7762 397.431 42.5705 393.498 46.7535C392.401 47.9201 391.964 49.1828 392.161 50.6142C392.835 55.5032 400.375 60.4078 400.451 60.4568C401.152 60.9073 401.315 61.7853 400.816 62.4175C400.318 63.0503 399.348 63.1976 398.646 62.7488C398.291 62.5204 389.92 57.0842 389.071 50.9675C388.762 48.7401 389.452 46.7102 391.123 44.9328C394.349 41.5024 402.83 42.296 417.047 47.3632C427.06 50.932 436.394 55.4132 436.487 55.4576C437.84 56.06 470.708 70.8089 474.541 81.103C475.142 82.7179 475.076 84.2056 474.346 85.5251C473.253 87.4988 471.458 88.8605 469.012 89.5732C467.644 89.9731 466.13 90.1418 464.547 90.1424Z" fill="#161616"/>
<path d="M473.391 82.8711C472.802 82.8711 472.238 82.5674 471.976 82.0527C463.475 65.3876 448.327 54.1867 426.955 48.7606C410.908 44.6867 397.186 45.5872 397.048 45.5962C396.181 45.6553 395.442 45.0776 395.375 44.3037C395.309 43.5297 395.948 42.8531 396.805 42.7924C397.383 42.7519 411.133 41.8407 427.698 46.0276C443.059 49.9109 463.7 59.1088 474.804 80.8761C475.164 81.5814 474.822 82.4166 474.041 82.7412C473.83 82.8295 473.609 82.8711 473.391 82.8711Z" fill="#161616"/>
<path d="M463.575 68.7065C463.275 68.7065 462.972 68.6284 462.704 68.4653C461.992 68.0305 461.805 67.1558 462.286 66.5124C462.334 66.4483 467.191 59.7994 465.328 52.5032C464.129 47.8072 460.415 43.7951 454.286 40.5778C445.257 35.8374 436.82 35.2086 429.212 38.7088C423.524 41.3253 420.471 45.3334 420.44 45.3739C419.958 46.0168 418.99 46.1839 418.278 45.7485C417.566 45.3126 417.38 44.438 417.863 43.7951C418.001 43.6118 431.923 25.586 455.851 38.1469C462.766 41.7764 466.978 46.4049 468.37 51.9013C470.523 60.4018 465.098 67.7785 464.866 68.0878C464.565 68.4906 464.075 68.7065 463.575 68.7065Z" fill="#161616"/>
<path d="M466.493 62.6652C465.975 62.6652 465.468 62.4318 465.172 62.0055C453.726 45.5012 423.383 42.0628 423.077 42.0296C422.223 41.938 421.614 41.2388 421.715 40.4677C421.817 39.6971 422.593 39.147 423.444 39.237C423.77 39.2719 431.537 40.1252 440.904 43.1394C453.418 47.166 462.723 53.1737 467.812 60.5121C468.268 61.1702 468.048 62.0381 467.319 62.4504C467.061 62.5961 466.776 62.6652 466.493 62.6652Z" fill="#161616"/>
<path d="M429.238 119.078C428.832 119.078 428.427 118.935 428.122 118.651C427.522 118.094 427.537 117.204 428.154 116.662C429.171 115.771 429.612 114.825 429.503 113.77C429.192 110.767 424.667 107.448 422.95 106.422C422.233 105.994 422.036 105.122 422.509 104.474C422.982 103.826 423.948 103.648 424.665 104.074C425.423 104.526 432.093 108.626 432.603 113.504C432.802 115.408 432.014 117.198 430.324 118.681C430.021 118.946 429.63 119.078 429.238 119.078Z" fill="#161616"/>
<path d="M335.748 98.4601C333.715 98.4601 332.032 97.4949 331.811 97.3633C331.094 96.9341 330.899 96.0617 331.373 95.4143C331.848 94.7686 332.809 94.5915 333.526 95.0156C333.945 95.2597 335.263 95.8368 336.326 95.5836C336.932 95.4397 337.426 95.0262 337.834 94.3204C338.233 93.6319 339.173 93.3664 339.936 93.7253C340.698 94.0852 340.993 94.9346 340.595 95.623C339.56 97.4116 338.118 98.0714 337.092 98.3093C336.635 98.4162 336.184 98.4601 335.748 98.4601Z" fill="#161616"/>
<path d="M358.557 95.0268C356.523 95.0268 354.84 94.0616 354.62 93.93C353.903 93.5008 353.707 92.6285 354.182 91.9811C354.656 91.3354 355.618 91.1582 356.334 91.5823C356.754 91.8275 358.072 92.404 359.135 92.1504C359.741 92.0064 360.234 91.593 360.643 90.8871C361.041 90.1986 361.982 89.9326 362.744 90.292C363.507 90.652 363.801 91.5013 363.403 92.1897C362.368 93.9784 360.927 94.6381 359.9 94.8766C359.443 94.9829 358.992 95.0268 358.557 95.0268Z" fill="#161616"/>
<path d="M346.176 122.489C342.638 122.489 338.766 122.104 334.573 121.335C327.179 119.978 321.623 117.914 321.389 117.826C320.595 117.529 320.218 116.707 320.547 115.989C320.876 115.272 321.787 114.93 322.581 115.228C322.797 115.309 344.387 123.258 357.715 117.677C368.165 113.303 360.7 92.1158 356.942 84.3206C356.599 83.6086 356.959 82.7801 357.748 82.4701C358.536 82.1585 359.454 82.4853 359.797 83.198C360.398 84.445 374.348 113.814 359.024 120.229C355.43 121.736 351.131 122.489 346.176 122.489Z" fill="#161616"/>
<path d="M314.924 124.799C314.159 124.799 313.492 124.29 313.383 123.586L310.862 107.141C307.479 107.116 304.483 106.053 302.658 104.187C301.335 102.834 299.958 100.382 300.914 96.3837C301.495 93.9572 303.056 92.8334 304.263 92.3188C308.561 90.4868 314.928 93.3402 315.64 93.6721C316.405 94.0281 316.704 94.8757 316.311 95.5659C315.917 96.2555 314.979 96.5254 314.214 96.1722C312.655 95.4494 308.064 93.8054 305.59 94.8628C305.051 95.0928 304.297 95.5625 303.959 96.9765C303.412 99.2646 303.76 101.065 304.992 102.324C306.429 103.794 309.079 104.526 312.074 104.285C312.898 104.213 313.64 104.749 313.754 105.492L316.469 123.2C316.587 123.969 315.992 124.679 315.14 124.785C315.067 124.795 314.995 124.799 314.924 124.799Z" fill="#161616"/>
<path d="M321.986 101.243H324.701L321.986 83.8416L297.549 66.9334C297.549 66.9334 285.059 77.2799 291.575 93.7257C298.092 110.173 312.767 109.32 312.767 109.32C312.767 109.32 315.697 105.881 312.211 105.683C308.65 105.482 302.151 104.471 302.436 96.767C302.705 89.4971 318.185 93.3686 321.986 101.243Z" fill="#161616"/>
<path d="M299.72 65.0358L324.701 83.7601C324.701 83.7601 351.581 83.4255 360.27 79.7475L363.257 86.6135C363.257 86.6135 376.018 68.4685 360.27 56.4537C344.522 44.4396 316.012 37.3283 299.72 65.0358Z" fill="#161616"/>
<path d="M282.886 243.833C282.503 243.833 282.132 243.706 281.843 243.471C281.486 243.18 281.298 242.757 281.333 242.324L288.553 153.237C288.595 151.903 289.779 125.937 314.857 124.93C315.073 124.92 315.279 124.953 315.469 125.016C315.881 124.878 316.35 124.9 316.754 125.098L337.364 135.178L352.46 123.313C352.905 122.963 353.53 122.87 354.076 123.073L359.345 125.034C359.396 125.053 359.446 125.075 359.495 125.098C360.22 125.454 377.271 134.032 378.389 153.233C379.466 171.703 378.402 226.827 378.39 227.381C378.377 228.053 377.839 228.623 377.106 228.741L283.159 243.811C283.068 243.826 282.977 243.833 282.886 243.833ZM315.082 127.734C315.053 127.737 315.024 127.738 314.995 127.74C305.537 128.12 298.749 132.47 294.819 140.671C291.803 146.962 291.666 153.264 291.665 153.327C291.665 153.355 291.664 153.383 291.661 153.41L284.585 240.726L375.299 226.174C375.446 218.111 376.263 170.267 375.279 153.381C374.286 136.353 359.182 128.179 358.07 127.602L353.779 126.005L353.659 126.099C353.998 126.421 354.164 126.883 354.059 127.351L349.578 147.213C349.467 147.709 349.069 148.111 348.538 148.269C348.006 148.426 347.421 148.314 347.007 147.974L337.875 140.496L331.03 149.911C330.73 150.324 330.203 150.557 329.664 150.544C329.116 150.523 328.622 150.245 328.36 149.81L315.082 127.734ZM319.885 129.828L329.854 146.403L336.13 137.772L319.885 129.828ZM339 137.621L347.072 144.231L350.624 128.485L339 137.621Z" fill="#161616"/>
<path d="M321.394 233.422H308.937V127.117H316.603L321.394 135.364V233.422Z" fill="#946D42"/>
<path d="M340.443 201.464C339.612 201.464 338.924 200.873 338.888 200.117L336.016 138.408C335.98 137.633 336.648 136.977 337.507 136.944C338.357 136.935 339.092 137.515 339.128 138.291L342 199.999C342.036 200.775 341.368 201.43 340.509 201.463C340.487 201.464 340.465 201.464 340.443 201.464Z" fill="#161616"/>
<path d="M365.617 233.422H352.537V127.316L355.372 124.374L365.617 131.24V233.422Z" fill="#946D42"/>
<path d="M282.777 242.558V272.473C282.777 272.473 286.932 292.579 307.486 287.675C328.041 282.771 352.573 273.453 352.573 273.453C352.573 273.453 367.08 267.568 373.053 254.819C379.027 242.068 376.925 227.356 376.925 227.356L282.777 242.558Z" fill="#946D42"/>
<path d="M291.842 143.988L269.039 217.548C269.039 217.548 266.866 230.299 277.456 233.24C288.045 236.183 291.847 234.221 293.476 233.24C295.105 232.26 362.444 196.051 362.444 196.051L348.053 171.206L300.535 192.293" fill="#DEE5DC"/>
<path d="M287.05 236.201C284.515 236.201 281.254 235.768 276.998 234.585C267.604 231.975 266.678 222.16 267.5 217.335C267.509 217.278 267.522 217.224 267.539 217.169L290.342 143.609C290.575 142.861 291.436 142.425 292.261 142.634C293.09 142.843 293.573 143.619 293.341 144.367L270.565 217.84C270.397 218.936 269.043 229.433 277.913 231.897C288.167 234.746 291.512 232.732 292.612 232.071C294.149 231.145 350.839 200.655 360.38 195.524L347.376 173.073L301.222 193.555C300.449 193.896 299.516 193.61 299.138 192.913C298.758 192.216 299.077 191.374 299.848 191.03L347.366 169.944C348.125 169.607 349.04 169.879 349.432 170.554L363.823 195.399C364.206 196.061 363.95 196.877 363.24 197.26C339.975 209.769 295.635 233.633 294.339 234.411C292.895 235.28 290.742 236.201 287.05 236.201Z" fill="#161616"/>
<path d="M355.384 102.931H349.423C348.563 102.931 347.866 102.301 347.866 101.525C347.866 100.748 348.563 100.118 349.423 100.118H352.779L350.217 95.8156C349.81 95.1316 350.094 94.2795 350.851 93.9111C351.608 93.5438 352.552 93.7992 352.96 94.4842L356.756 100.859C357.015 101.295 357.002 101.822 356.721 102.246C356.439 102.671 355.932 102.931 355.384 102.931Z" fill="#161616"/>
<path d="M355.37 223.368L388.914 184.725C388.914 184.725 406.039 174.312 414.782 181.276C425.248 189.612 424.788 204.798 424.788 204.798V283.261C424.788 283.261 438.283 295.031 438.283 304.348C438.283 304.348 431.59 308.762 414.905 304.348C398.219 299.935 383.68 282.771 383.68 282.771V246.973L355.373 271.995" fill="#946D42"/>
<path d="M301.871 242.425L335.554 203.815C335.554 203.815 352.887 193.421 361.63 200.384C372.097 208.72 371.845 223.923 371.845 223.923V302.387C371.845 302.387 385.2 314.156 385.2 323.474C385.2 323.474 378.266 327.887 361.58 323.474C344.896 319.06 330.114 301.896 330.114 301.896V242.421" fill="#946D42"/>
<path d="M330.425 259.576C329.565 259.576 328.868 258.947 328.868 258.17V242.421C328.868 241.644 329.565 241.015 330.425 241.015C331.286 241.015 331.983 241.644 331.983 242.421V258.17C331.983 258.947 331.286 259.576 330.425 259.576Z" fill="#161616"/>
<path d="M371.534 259.576C370.674 259.576 369.977 258.947 369.977 258.17V223.923C369.981 223.749 370.182 209.271 360.395 201.477C356.448 198.332 350.216 199.411 345.685 200.87C341.174 202.321 337.424 204.419 336.527 204.939L296.9 251.225C296.374 251.838 295.397 251.953 294.716 251.477C294.036 251.002 293.91 250.119 294.436 249.504L334.224 203.03C334.327 202.91 334.45 202.807 334.589 202.722C335.333 202.271 352.921 191.774 362.456 199.367C373.339 208.036 373.091 223.308 373.091 223.954V258.17C373.091 258.947 372.394 259.576 371.534 259.576Z" fill="#161616"/>
<path d="M371.845 302.387V258.17H330.114V301.896C330.114 301.896 344.988 319.06 361.674 323.473C378.36 327.887 385.128 323.473 385.128 323.473C385.129 314.156 371.845 302.387 371.845 302.387Z" fill="#FBFCFA"/>
<path d="M375.347 326.841C371.15 326.841 366.455 326.162 361.393 324.823C354.239 322.93 346.64 318.636 338.81 312.06C333.019 307.195 329.348 302.936 329.195 302.757C328.984 302.511 328.869 302.208 328.869 301.897V257.889C328.869 257.112 329.566 256.482 330.426 256.482H372.158C373.018 256.482 373.715 257.112 373.715 257.889V301.809C376.142 304.068 386.92 314.595 386.92 323.474C386.92 323.928 386.677 324.354 386.268 324.618C386.126 324.709 382.733 326.841 375.347 326.841ZM331.983 301.403C334.219 303.894 347.601 318.244 362.268 322.124C367.046 323.388 371.446 324.029 375.347 324.029C379.881 324.029 382.595 323.157 383.769 322.662C383.033 314.15 371.187 303.497 371.063 303.387C370.767 303.123 370.6 302.763 370.6 302.387V259.295H331.983V301.403Z" fill="#161616"/>
<path d="M372.219 303.793C371.785 303.793 371.354 303.631 371.046 303.313C367.48 299.633 356.813 301.657 353.003 302.747C352.183 302.983 351.308 302.571 351.048 301.831C350.788 301.091 351.243 300.3 352.062 300.066C352.218 300.021 355.931 298.968 360.333 298.556C366.564 297.972 370.957 298.949 373.39 301.46C373.956 302.045 373.89 302.933 373.243 303.444C372.949 303.679 372.583 303.793 372.219 303.793Z" fill="#161616"/>
<path d="M383.68 246.972V282.771C383.68 282.771 398.382 299.935 415.067 304.348C431.753 308.762 438.297 304.348 438.297 304.348C438.297 295.031 424.789 283.261 424.789 283.261V238.484H383.351L383.68 246.972Z" fill="#FBFCFA"/>
<path d="M428.681 307.716C424.523 307.716 419.847 307.037 414.784 305.698C407.628 303.805 400.058 299.509 392.285 292.93C386.535 288.065 382.906 283.805 382.754 283.626C382.546 283.38 382.434 283.08 382.434 282.771V247.018L381.797 238.295C381.768 237.907 381.919 237.525 382.213 237.241C382.507 236.957 382.92 236.796 383.351 236.796H425.1C425.96 236.796 426.657 237.426 426.657 238.202V282.677C429.129 284.938 440.087 295.464 440.087 304.348C440.087 304.794 439.852 305.214 439.454 305.48C439.318 305.571 436.016 307.716 428.681 307.716ZM385.549 282.283C387.755 284.768 400.996 299.12 415.66 302.999C420.439 304.262 424.819 304.904 428.681 304.904C433.129 304.904 435.783 304.039 436.937 303.544C436.194 295.037 424.141 284.38 424.015 284.27C423.713 284.005 423.542 283.641 423.542 283.261V239.609H385.014L385.545 246.88C385.547 246.911 385.548 246.941 385.548 246.972V282.283H385.549Z" fill="#161616"/>
<path d="M383.991 239.89C383.131 239.89 382.434 239.261 382.434 238.484V217.673C382.434 216.896 383.131 216.267 383.991 216.267C384.852 216.267 385.549 216.896 385.549 217.673V238.484C385.549 239.261 384.852 239.89 383.991 239.89Z" fill="#161616"/>
<path d="M405.074 286.173C404.457 286.173 403.873 285.84 403.629 285.292C403.308 284.572 403.693 283.754 404.49 283.463C404.954 283.294 415.961 279.353 425.865 281.909C426.692 282.122 427.171 282.901 426.935 283.647C426.699 284.395 425.837 284.827 425.01 284.613C416.149 282.326 405.758 286.034 405.654 286.072C405.464 286.141 405.267 286.173 405.074 286.173Z" fill="#161616"/>
<path d="M293.366 66.3706H288.383C287.523 66.3706 286.826 65.7412 286.826 64.9644C286.826 64.1877 287.523 63.5583 288.383 63.5583H293.366C294.226 63.5583 294.923 64.1877 294.923 64.9644C294.923 65.7412 294.226 66.3706 293.366 66.3706Z" fill="#161616"/>
<path d="M293.204 61.5378C292.796 61.5378 292.388 61.3938 292.083 61.1075L289.64 58.8194C289.043 58.2603 289.06 57.3705 289.679 56.8311C290.299 56.2923 291.285 56.3086 291.881 56.8671L294.325 59.1552C294.921 59.7143 294.904 60.6041 294.285 61.1435C293.983 61.4073 293.593 61.5378 293.204 61.5378Z" fill="#161616"/>
<path d="M345.607 128.722C344.802 128.722 344.119 128.161 344.056 127.424L343.513 121.048C343.447 120.274 344.089 119.598 344.946 119.538C345.806 119.469 346.553 120.058 346.619 120.833L347.162 127.208C347.228 127.982 346.586 128.658 345.729 128.718C345.687 128.722 345.647 128.722 345.607 128.722Z" fill="#161616"/>
<path d="M352.069 176.266L375.748 163.851C375.748 163.851 384.98 160.173 390.411 163.851C395.841 167.529 402.358 176.266 402.358 176.266C402.358 176.266 397.567 177.157 395.754 176.266L393.126 171.452C393.126 171.452 399.196 182.229 396.839 184.196C394.483 186.163 387.695 178.807 387.695 178.807C387.695 178.807 394.754 189.772 392.04 191.891C389.325 194.01 383.351 183.4 383.351 183.4C383.351 183.4 377.921 190.863 370.318 188.37L361.9 192.171" fill="#DEE5DC"/>
<path d="M361.902 193.578C361.33 193.578 360.781 193.292 360.508 192.8C360.123 192.105 360.435 191.261 361.204 190.913L369.621 187.113C370.003 186.94 370.447 186.917 370.849 187.049C377.187 189.124 381.856 182.893 382.052 182.627C382.358 182.21 382.884 181.968 383.44 181.999C383.993 182.027 384.488 182.318 384.739 182.763C386.919 186.633 389.847 190.287 391.082 190.725C391.618 189.532 389.438 184.313 386.349 179.514C385.943 178.883 386.14 178.075 386.802 177.655C387.466 177.237 388.374 177.346 388.891 177.907C391.433 180.657 394.705 183.128 395.779 183.129C396.226 182.049 394.682 177.618 392.379 173.262L391.73 172.074C391.351 171.38 391.664 170.54 392.429 170.194C393.194 169.849 394.125 170.125 394.514 170.814C394.792 171.308 395.086 171.843 395.384 172.408L396.881 175.151C397.497 175.279 398.52 175.283 399.617 175.199C397.428 172.479 393.144 167.46 389.476 164.975C385.076 161.994 377.274 164.799 376.447 165.11L352.851 177.482C352.107 177.873 351.154 177.644 350.723 176.972C350.291 176.3 350.544 175.439 351.288 175.05L374.967 162.634C375.017 162.608 375.068 162.585 375.12 162.564C375.531 162.401 385.256 158.6 391.345 162.725C396.922 166.502 403.377 175.115 403.649 175.48C403.939 175.869 403.996 176.363 403.799 176.797C403.603 177.231 403.18 177.549 402.671 177.643C402.091 177.751 399.956 178.117 397.935 178.06C399.016 181.104 399.419 183.957 397.897 185.229C397.286 185.739 396.493 185.98 395.606 185.93C394.718 185.878 393.733 185.494 392.747 184.938C394.621 189.175 394.709 191.666 393.059 192.955C392.387 193.479 391.528 193.681 390.64 193.525C387.95 193.047 384.87 188.774 383.099 185.946C380.436 188.545 375.801 191.314 370.442 189.887L362.597 193.429C362.373 193.529 362.135 193.578 361.902 193.578Z" fill="#161616"/>
<path d="M405.886 159.126C405.561 159.126 405.233 159.034 404.953 158.845L398.436 154.432C397.749 153.966 397.609 153.084 398.125 152.463C398.642 151.842 399.617 151.717 400.305 152.182L406.821 156.595C407.509 157.061 407.649 157.943 407.133 158.563C406.827 158.932 406.36 159.126 405.886 159.126Z" fill="#161616"/>
<path d="M414.576 49.3436C414.576 49.3436 404.891 47.8187 402.629 51.1963C400.367 54.5745 431.9 69.4493 431.9 69.4493C431.9 69.4493 462.638 83.426 466.492 80.1136C469.772 77.2946 461.913 70.8285 461.913 70.8285C461.913 70.8285 422.461 49.4634 414.576 49.3436Z" fill="#161616"/>
<path d="M333.06 105.961C332.601 108.163 339.349 114.747 347.401 112.01C351.744 110.534 349.129 106.882 344.077 106.882C341.252 106.882 334.445 99.319 333.06 105.961Z" fill="#161616"/>
<path d="M594.137 308.814C593.763 308.814 593.395 308.692 593.107 308.462L585.076 302.063C584.431 301.549 584.369 300.66 584.938 300.078C585.507 299.497 586.491 299.441 587.136 299.954L593.294 304.862L598.679 287.093C598.905 286.345 599.757 285.903 600.592 286.108C601.421 286.313 601.909 287.086 601.682 287.835L595.639 307.779C595.497 308.247 595.098 308.616 594.583 308.755C594.436 308.795 594.286 308.814 594.137 308.814Z" fill="#161616"/>
<path d="M594.139 308.814C594.032 308.814 593.923 308.803 593.815 308.783L584.375 306.982C583.533 306.821 582.995 306.075 583.173 305.315C583.351 304.555 584.183 304.073 585.018 304.229L594.458 306.031C595.301 306.192 595.838 306.938 595.661 307.698C595.506 308.36 594.859 308.814 594.139 308.814Z" fill="#161616"/>
<path d="M566.691 246.549C566.691 246.549 581.78 269.871 583.909 275.031C586.038 280.193 610.262 309.915 638.082 293.97C638.082 293.97 653.201 288.644 653.621 269.303L601.966 248.295C601.966 248.295 579.709 225.691 566.691 246.549Z" fill="#EAEFE8"/>
<path d="M621.377 299.793C621.375 299.793 621.374 299.793 621.372 299.793C600.064 299.793 584.233 279.728 582.449 275.404C580.392 270.415 565.497 247.432 565.346 247.199C565.067 246.768 565.062 246.265 565.334 245.829C569.291 239.49 574.492 236.29 580.792 236.29C591.339 236.29 601.237 245.503 602.899 247.125L654.259 268.017C654.828 268.249 655.189 268.766 655.177 269.329C654.759 288.567 640.531 294.445 638.798 295.104C633.192 298.294 627.331 299.793 621.377 299.793ZM568.493 246.55C571.085 250.572 583.403 269.659 585.368 274.422C586.955 278.268 601.98 296.98 621.374 296.98C621.375 296.98 621.377 296.98 621.377 296.98C626.774 296.98 632.112 295.607 637.248 292.664C637.333 292.615 637.423 292.633 637.517 292.6C638.08 292.398 651.207 287.521 652.033 270.169L601.328 249.562C601.128 249.481 600.95 249.371 600.804 249.223C600.704 249.121 590.709 239.114 580.793 239.114C575.922 239.114 571.787 241.617 568.493 246.55Z" fill="#161616"/>
<path d="M653.62 269.303L685.537 251.1C685.537 251.1 675.037 284.093 653.62 269.303Z" fill="#161616"/>
<path d="M653.016 270.586L690.693 268.49C690.693 268.491 663.915 292.855 653.016 270.586Z" fill="#161616"/>
<path d="M653.646 273.197L689.926 282.614C689.926 282.614 655.658 297.476 653.646 273.197Z" fill="#161616"/>
<path d="M576.045 238.474C576.045 238.474 570.28 225.692 576.045 226.071C581.808 226.449 584.697 230.621 584.697 230.621C584.697 230.621 591.04 225.276 593.144 227.38C595.248 229.484 589.418 239.691 589.418 239.691" fill="#946D42"/>
<path d="M630.943 313.854H620.366C619.506 313.854 618.809 313.225 618.809 312.448C618.809 311.671 619.506 311.042 620.366 311.042H628.452L619.529 294.499C619.152 293.801 619.474 292.959 620.247 292.619C621.021 292.279 621.952 292.569 622.328 293.267L632.343 311.832C632.578 312.267 632.548 312.782 632.264 313.193C631.979 313.604 631.481 313.854 630.943 313.854Z" fill="#161616"/>
<path d="M622.546 318.515C622.003 318.515 621.476 318.259 621.189 317.801C620.766 317.126 621.029 316.267 621.778 315.885L630.176 311.595C630.924 311.214 631.875 311.45 632.298 312.127C632.721 312.802 632.458 313.661 631.709 314.043L623.311 318.333C623.069 318.457 622.806 318.515 622.546 318.515Z" fill="#161616"/>
<path d="M586.64 263.126C586.64 263.126 593.003 265.201 596.248 261.906C599.492 258.611 596.606 252.875 596.606 252.875C596.606 252.875 603.522 254.115 607.504 250.548L601.966 248.295C601.966 248.295 579.709 225.691 566.69 246.549C566.69 246.549 576.689 262.004 581.555 270.536C583.483 269.771 587.22 267.684 586.64 263.126Z" fill="#EAEFE8"/>
<path d="M581.556 271.941C580.99 271.941 580.446 271.661 580.171 271.179C575.379 262.778 565.445 247.413 565.346 247.259C565.067 246.828 565.062 246.295 565.333 245.86C569.29 239.52 574.491 236.306 580.791 236.306C591.339 236.306 601.236 245.511 602.898 247.133L608.142 249.266C608.61 249.456 608.944 249.842 609.035 250.298C609.126 250.754 608.964 251.221 608.6 251.547C605.685 254.158 601.536 254.555 598.846 254.483C599.493 256.748 599.914 260.298 597.41 262.84C595.905 264.369 593.663 265.177 590.928 265.177C589.931 265.177 588.992 265.07 588.212 264.939C587.751 269.134 583.964 271.116 582.181 271.823C581.978 271.904 581.766 271.941 581.556 271.941ZM568.493 246.55C570.402 249.516 577.831 261.103 582.214 268.634C583.928 267.651 585.44 266.005 585.093 263.286C585.032 262.803 585.251 262.324 585.674 262.022C586.097 261.72 586.664 261.638 587.169 261.802C587.183 261.808 588.937 262.364 590.929 262.364C592.776 262.364 594.173 261.895 595.084 260.971C597.586 258.43 595.213 253.505 595.188 253.456C594.946 252.976 595.022 252.414 595.385 252.001C595.748 251.588 596.334 251.391 596.908 251.495C596.923 251.498 601.065 252.189 604.363 250.813L601.326 249.577C601.127 249.496 600.948 249.378 600.802 249.23C600.703 249.129 590.708 239.118 580.792 239.118C575.922 239.117 571.787 241.617 568.493 246.55Z" fill="#161616"/>
<path d="M607.504 250.547C607.504 250.547 604.483 274.703 620.233 280.156C635.982 285.609 641.863 264.783 641.863 264.783L607.504 250.547Z" fill="#EAEFE8"/>
<path d="M625.314 282.356H625.312C623.494 282.356 621.598 282.077 619.675 281.411C612.689 278.992 608.107 272.819 606.426 263.504C605.192 256.671 605.925 250.629 605.957 250.375C606.013 249.927 606.303 249.538 606.738 249.316C607.174 249.093 607.699 249.077 608.153 249.265L642.511 263.503C643.195 263.786 643.557 264.471 643.371 265.129C643.322 265.303 642.136 269.383 639.413 273.578C635.66 279.359 630.785 282.356 625.314 282.356ZM608.901 252.674C608.612 258.37 608.868 274.715 620.791 278.844C622.356 279.386 623.877 279.661 625.312 279.661C634.197 279.662 638.726 269.067 639.984 265.552L608.901 252.674Z" fill="#161616"/>
<path d="M566.69 246.55C566.69 246.55 561.231 248.424 559.971 254.123L570.017 251.742L566.69 246.55Z" fill="#161616"/>
<path d="M581.218 246.697C582.501 246.697 583.541 245.757 583.541 244.599C583.541 243.44 582.501 242.501 581.218 242.501C579.935 242.501 578.895 243.44 578.895 244.599C578.895 245.757 579.935 246.697 581.218 246.697Z" fill="#161616"/>
<path d="M534.434 311.101C534.434 311.101 546.3 322.576 556.98 317.196C567.66 311.816 567.66 296.309 556.98 295.669C546.3 295.027 554.211 315.745 534.434 311.101Z" fill="#8DC73F"/>
<path d="M552.163 325.384C551.302 325.384 550.605 324.754 550.605 323.978V318.915C550.605 318.139 551.302 317.509 552.163 317.509C553.023 317.509 553.72 318.139 553.72 318.915V323.978C553.72 324.754 553.023 325.384 552.163 325.384Z" fill="#161616"/>
<path d="M557.146 323.134C556.286 323.134 555.589 322.505 555.589 321.728V317.228C555.589 316.452 556.286 315.822 557.146 315.822C558.006 315.822 558.703 316.452 558.703 317.228V321.728C558.703 322.505 558.006 323.134 557.146 323.134Z" fill="#161616"/>
<path d="M563.605 299.784C563.605 299.784 571.003 301.977 571.4 306.36L564.198 305.424L563.605 299.784Z" fill="#161616"/>
<path d="M557.154 303.182C558.363 303.182 559.343 302.297 559.343 301.206C559.343 300.114 558.363 299.229 557.154 299.229C555.946 299.229 554.966 300.114 554.966 301.206C554.966 302.297 555.946 303.182 557.154 303.182Z" fill="#161616"/>
<path d="M508.92 276.274C508.92 276.274 520.787 287.749 531.467 282.369C542.146 276.989 542.146 261.482 531.467 260.842C520.787 260.2 528.698 280.918 508.92 276.274Z" fill="#8DC73F"/>
<path d="M526.625 290.512C525.765 290.512 525.068 289.882 525.068 289.106V284.043C525.068 283.267 525.765 282.637 526.625 282.637C527.486 282.637 528.183 283.267 528.183 284.043V289.106C528.183 289.882 527.486 290.512 526.625 290.512Z" fill="#161616"/>
<path d="M531.608 288.824C530.748 288.824 530.051 288.195 530.051 287.418V282.356C530.051 281.579 530.748 280.95 531.608 280.95C532.468 280.95 533.165 281.579 533.165 282.356V287.418C533.165 288.195 532.468 288.824 531.608 288.824Z" fill="#161616"/>
<path d="M538.091 264.957C538.091 264.957 545.489 267.149 545.886 271.533L538.684 270.597L538.091 264.957Z" fill="#161616"/>
<path d="M531.617 268.872C532.826 268.872 533.806 267.987 533.806 266.896C533.806 265.804 532.826 264.919 531.617 264.919C530.408 264.919 529.429 265.804 529.429 266.896C529.429 267.987 530.408 268.872 531.617 268.872Z" fill="#161616"/>
<path d="M772.79 229.21C773.112 230.961 771.801 232.617 769.862 232.907C767.922 233.198 766.088 232.013 765.767 230.262L738.279 80.6762C737.957 78.9246 739.268 77.2688 741.208 76.9785C743.147 76.6877 744.981 77.8723 745.303 79.6238L772.79 229.21Z" fill="#DEE5DC"/>
<path d="M769.274 234.358C766.764 234.358 764.642 232.732 764.23 230.493L736.743 80.9065C736.518 79.6893 736.833 78.4654 737.628 77.4614C738.423 76.4574 739.604 75.7932 740.953 75.5918C741.23 75.5502 741.514 75.5288 741.795 75.5288C744.305 75.5288 746.427 77.1549 746.838 79.3941L774.326 228.98C774.789 231.494 772.9 233.878 770.116 234.295C769.838 234.336 769.555 234.358 769.274 234.358ZM741.795 78.3406C741.684 78.3406 741.573 78.349 741.463 78.3653C740.934 78.4446 740.473 78.705 740.161 79.0976C739.851 79.4902 739.727 79.9694 739.815 80.4453L767.302 230.032C767.482 231.007 768.516 231.686 769.606 231.52C770.696 231.357 771.435 230.423 771.254 229.44L743.767 79.8536C743.605 78.9773 742.776 78.3406 741.795 78.3406Z" fill="#161616"/>
<path d="M741.218 105.659L751.266 103.871C751.266 103.871 751.644 61.2484 738.128 60.1111C724.61 58.9744 741.218 105.659 741.218 105.659Z" fill="#946D42"/>
<path d="M770.361 217.626C770.361 217.626 775.953 233.72 787.516 234.065C798.099 234.38 804.196 279.015 804.196 279.015C804.196 279.015 800.485 285.003 799.221 279.761C797.957 274.519 790.729 247.848 786.802 247.75C782.875 247.651 790.109 280.904 790.109 280.904C790.109 280.904 788.03 289.228 784.853 283.402C781.678 277.575 777.652 249.121 773.213 249.514C768.775 249.908 775.488 285.02 775.488 285.02C775.488 285.02 773.319 290.999 770.79 287.057C768.261 283.115 763.93 249.73 758.288 251.751C754.087 253.255 759.418 285.724 759.418 285.724C759.418 285.724 757.844 296.798 754.44 286.455C752.86 281.653 743.877 252.576 748.931 241.747C751.519 236.199 764.687 237.485 763.63 218.634L770.361 217.626Z" fill="white"/>
<path d="M757.144 292.276C755.142 292.276 754.019 290.109 752.948 286.856C751.816 283.414 742.039 252.893 747.497 241.201C748.496 239.059 750.626 237.83 752.881 236.529C757.51 233.859 762.756 230.832 762.075 218.706C762.036 217.991 762.595 217.364 763.376 217.247L770.107 216.238C770.873 216.122 771.615 216.535 771.847 217.203C771.9 217.355 777.251 232.352 787.568 232.659C794.571 232.867 798.784 246.275 801.344 256.343C804.176 267.483 805.727 278.73 805.742 278.842C805.782 279.139 805.717 279.522 805.555 279.783C804.881 280.87 803.077 283.481 800.883 283.481C800.883 283.481 800.883 283.481 800.883 283.481C799.788 283.481 798.349 282.834 797.7 280.141C794.009 264.831 789.415 253.012 787.236 249.908C786.723 254.114 788.952 268.314 791.637 280.652C791.679 280.845 791.779 281.033 791.73 281.223C791.305 282.926 789.783 286.882 787.291 286.882V286.88C784.8 286.881 783.945 284.73 783.559 284.024C782.254 281.628 780.888 276.176 779.367 269.864C777.974 264.083 775.449 253.717 773.575 251.311C772.462 254.993 774.39 270.94 777.036 284.781C777.079 285.006 777.054 285.239 776.975 285.457C776.604 286.478 775.19 289.808 772.581 289.808C771.372 289.808 770.316 289.119 769.445 287.761C768.498 286.287 767.588 282.366 766.059 275.564C764.954 270.642 763.702 265.064 762.325 260.606C760.576 254.942 759.348 253.52 758.891 253.168C757.66 255.386 758.076 267.959 760.958 285.518C760.979 285.645 760.981 285.775 760.962 285.903C760.362 290.132 759.076 292.276 757.144 292.276ZM765.236 219.819C765.549 232.557 759.218 236.21 754.557 238.899C752.564 240.049 750.989 240.958 750.366 242.293C748.379 246.549 748.506 254.786 750.731 266.116C752.688 276.078 755.606 285.063 755.933 286.055C756.392 287.451 756.776 288.306 757.057 288.823C757.36 288.049 757.671 286.866 757.846 285.733C757.638 284.433 756.46 276.962 755.727 269.425C754.143 253.134 755.922 251.085 757.715 250.444C758.061 250.319 758.42 250.257 758.781 250.257C762.891 250.257 765.192 257.553 769.111 275.005C770.237 280.02 771.402 285.204 772.138 286.352C772.338 286.665 772.496 286.836 772.596 286.927C772.968 286.631 773.524 285.756 773.884 284.897C772.379 276.973 768.13 252.838 771.355 249.013C771.917 248.346 772.593 248.157 773.061 248.115C773.142 248.107 773.223 248.104 773.304 248.104C776.685 248.104 778.53 253.388 782.358 269.265C783.712 274.883 785.112 280.693 786.25 282.78C786.62 283.46 786.908 283.797 787.076 283.957C787.529 283.492 788.153 282.162 788.515 280.872C788.197 279.387 786.784 272.678 785.646 265.761C782.96 249.423 784.394 247.847 785.084 247.091C785.524 246.609 786.127 246.343 786.784 246.343C788.605 246.388 790.871 247.593 795.501 261.419C798.101 269.187 800.209 277.249 800.742 279.461C800.853 279.918 800.967 280.204 801.056 280.376C801.47 280.085 802.093 279.408 802.582 278.712C802.258 276.47 800.772 266.665 798.302 256.954C793.269 237.168 788.734 235.507 787.464 235.47C776.726 235.15 770.913 223.08 769.322 219.207L765.236 219.819Z" fill="#161616"/>
<path d="M126.05 136.816C140.923 136.816 152.98 125.928 152.98 112.497C152.98 99.0666 140.923 88.1788 126.05 88.1788C111.178 88.1788 99.1206 99.0666 99.1206 112.497C99.1206 125.928 111.178 136.816 126.05 136.816Z" fill="#DEE5DC"/>
<path d="M127.069 96.095C137.883 96.095 146.65 88.1782 146.65 78.4123C146.65 68.6464 137.883 60.7296 127.069 60.7296C116.254 60.7296 107.487 68.6464 107.487 78.4123C107.487 88.1782 116.254 96.095 127.069 96.095Z" fill="#DEE5DC"/>
<path d="M126.786 169.863C126.785 169.863 126.784 169.863 126.782 169.863C125.922 169.863 125.227 169.11 125.229 168.333L125.512 71.3346C125.514 70.5595 126.211 69.7451 127.069 69.7451C127.07 69.7451 127.071 69.7451 127.073 69.7451C127.933 69.7451 128.628 70.5055 128.626 71.2817L128.343 168.277C128.341 169.052 127.644 169.863 126.786 169.863Z" fill="#161616"/>
<path d="M126.785 119.179C126.537 119.179 126.285 119.125 126.051 119.012L111.5 111.978C110.742 111.611 110.457 110.759 110.862 110.074C111.269 109.389 112.212 109.132 112.97 109.498L127.521 116.533C128.279 116.899 128.564 117.752 128.159 118.436C127.879 118.909 127.34 119.179 126.785 119.179Z" fill="#161616"/>
<path d="M127.068 89.584C126.716 89.584 126.361 89.4772 126.07 89.2567C125.409 88.7583 125.322 87.8719 125.874 87.2762L137.321 74.9133C137.873 74.3171 138.855 74.2373 139.514 74.7367C140.174 75.2351 140.262 76.1215 139.71 76.7172L128.263 89.0801C127.955 89.413 127.513 89.584 127.068 89.584Z" fill="#161616"/>
<path d="M267.087 506.739C266.965 506.739 266.842 506.726 266.719 506.699C265.884 506.517 265.37 505.757 265.572 505.002C265.685 504.581 268.425 494.54 276.117 481.768C283.222 469.971 296.065 453.601 316.901 442.605C317.644 442.211 318.597 442.439 319.031 443.109C319.465 443.779 319.215 444.641 318.472 445.032C279.756 465.464 268.705 505.263 268.598 505.663C268.426 506.307 267.789 506.739 267.087 506.739Z" fill="#161616"/>
<path d="M243.695 501.508C243.645 501.508 243.595 501.506 243.544 501.501C242.688 501.427 242.061 500.74 242.143 499.967C242.239 499.068 251.403 409.728 224.495 382.896C223.917 382.32 223.966 381.431 224.604 380.91C225.241 380.389 226.225 380.433 226.803 381.009C238.538 392.711 245.202 416.37 246.609 451.329C247.651 477.209 245.267 500.009 245.243 500.236C245.166 500.964 244.488 501.508 243.695 501.508Z" fill="#161616"/>
<path d="M317.84 439.544C317.84 439.544 330.02 420.528 319.544 415.919C311.034 412.175 308.191 434.756 317.84 439.544Z" fill="#8DC73F"/>
<path d="M317.42 440.971C316.564 440.971 315.867 440.336 315.863 439.561L315.761 420.496C315.757 419.72 316.451 419.034 317.311 419.034C317.314 419.034 317.316 419.034 317.319 419.034C318.176 419.034 318.872 419.703 318.876 420.478L318.978 439.526C318.982 440.302 318.288 440.97 317.428 440.97C317.425 440.971 317.423 440.971 317.42 440.971Z" fill="#161616"/>
<path d="M293.292 458.92C293.292 458.92 301.469 438.23 290.243 435.405C281.124 433.11 282.844 455.784 293.292 458.92Z" fill="#8DC73F"/>
<path d="M292.878 460.395C292.144 460.395 291.49 459.925 291.349 459.249L287.446 440.561C287.287 439.799 287.843 439.063 288.688 438.919C289.532 438.778 290.347 439.277 290.506 440.04L294.409 458.728C294.569 459.491 294.013 460.227 293.168 460.371C293.071 460.387 292.974 460.395 292.878 460.395Z" fill="#161616"/>
<path d="M272.927 484.858C272.927 484.858 279.618 463.737 268.215 461.568C258.952 459.806 262.278 482.334 272.927 484.858Z" fill="#8DC73F"/>
<path d="M272.518 486.357C271.824 486.357 271.191 485.934 271.011 485.299L265.79 466.876C265.577 466.123 266.079 465.358 266.912 465.165C267.745 464.97 268.594 465.426 268.807 466.179L274.028 484.601C274.241 485.354 273.739 486.119 272.906 486.312C272.776 486.343 272.647 486.357 272.518 486.357Z" fill="#161616"/>
<path d="M326.394 440.785C326.394 440.785 350.6 442.97 350.933 432.452C351.204 423.906 327.248 430.873 326.394 440.785Z" fill="#8DC73F"/>
<path d="M326.222 441.846C325.631 441.846 325.067 441.541 324.805 441.025C324.447 440.319 324.791 439.485 325.573 439.162L344.718 431.242C345.499 430.917 346.424 431.229 346.782 431.935C347.14 432.641 346.796 433.475 346.014 433.798L326.87 441.718C326.66 441.805 326.439 441.846 326.222 441.846Z" fill="#161616"/>
<path d="M306.889 453.474C306.889 453.474 325.249 467.885 332.251 459.474C337.939 452.641 313.927 445.829 306.889 453.474Z" fill="#8DC73F"/>
<path d="M327.664 458.032C327.568 458.032 327.471 458.024 327.374 458.008L306.68 454.483C305.835 454.339 305.279 453.604 305.439 452.841C305.597 452.078 306.413 451.578 307.257 451.719L327.951 455.244C328.796 455.388 329.352 456.123 329.193 456.886C329.051 457.561 328.398 458.032 327.664 458.032Z" fill="#161616"/>
<path d="M282.986 479.982C282.986 479.982 305.057 489.218 309.195 479.382C312.556 471.39 287.395 470.871 282.986 479.982Z" fill="#8DC73F"/>
<path d="M282.947 481.01C282.154 481.01 281.475 480.465 281.398 479.737C281.317 478.965 281.944 478.278 282.8 478.204L303.763 476.396C304.622 476.325 305.379 476.889 305.462 477.663C305.543 478.435 304.916 479.122 304.06 479.196L283.097 481.004C283.046 481.008 282.996 481.01 282.947 481.01Z" fill="#161616"/>
<path d="M227.075 375.001C227.075 375.001 247.704 352.241 234.96 344.112C224.607 337.511 215.465 366.798 227.075 375.001Z" fill="#8DC73F"/>
<path d="M226.522 376.325C226.442 376.325 226.36 376.32 226.277 376.308C225.428 376.187 224.848 375.467 224.982 374.7L229.383 349.551C229.517 348.785 230.31 348.264 231.164 348.382C232.013 348.504 232.593 349.224 232.459 349.991L228.058 375.139C227.937 375.831 227.275 376.325 226.522 376.325Z" fill="#161616"/>
<path d="M245.145 413.723C245.145 413.723 273.021 403.337 266.579 391.661C261.345 382.177 239.663 402.435 245.145 413.723Z" fill="#8DC73F"/>
<path d="M244.731 414.842C244.402 414.842 244.071 414.748 243.789 414.554C243.105 414.084 242.972 413.202 243.493 412.584L259.298 393.824C259.818 393.205 260.795 393.085 261.48 393.556C262.164 394.026 262.297 394.908 261.776 395.526L245.971 414.286C245.665 414.65 245.201 414.842 244.731 414.842Z" fill="#161616"/>
<path d="M249.789 465.451C249.789 465.451 277.665 455.065 271.223 443.388C265.989 433.905 244.307 454.163 249.789 465.451Z" fill="#8DC73F"/>
<path d="M249.375 466.57C249.046 466.57 248.715 466.476 248.433 466.282C247.749 465.812 247.616 464.93 248.137 464.312L263.942 445.552C264.462 444.933 265.44 444.813 266.124 445.284C266.808 445.754 266.941 446.636 266.42 447.254L250.615 466.015C250.309 466.379 249.845 466.57 249.375 466.57Z" fill="#161616"/>
<path d="M221.535 378.904C221.535 378.904 191.573 375.821 194.221 362.998C196.374 352.581 223.378 366.691 221.535 378.904Z" fill="#8DC73F"/>
<path d="M221.844 379.932C221.519 379.932 221.192 379.84 220.912 379.651L200.015 365.525C199.326 365.06 199.186 364.179 199.701 363.557C200.217 362.936 201.193 362.808 201.881 363.274L222.779 377.4C223.467 377.865 223.608 378.746 223.092 379.368C222.786 379.737 222.318 379.932 221.844 379.932Z" fill="#161616"/>
<path d="M233.283 403.432C233.283 403.432 203.547 407.958 202.161 394.973C201.037 384.425 231.31 391.235 233.283 403.432Z" fill="#8DC73F"/>
<path d="M233.464 404.396C233.281 404.396 233.094 404.367 232.913 404.305L208.501 395.954C207.697 395.679 207.293 394.867 207.597 394.141C207.902 393.415 208.8 393.049 209.605 393.324L234.016 401.675C234.82 401.95 235.225 402.762 234.921 403.488C234.685 404.049 234.092 404.396 233.464 404.396Z" fill="#161616"/>
<path d="M241.023 438.383C241.023 438.383 211.288 442.909 209.902 429.924C208.777 419.377 239.05 426.186 241.023 438.383Z" fill="#8DC73F"/>
<path d="M241.205 439.347C241.022 439.347 240.835 439.317 240.653 439.255L216.243 430.905C215.439 430.63 215.034 429.818 215.339 429.091C215.643 428.366 216.543 428.001 217.347 428.275L241.757 436.625C242.561 436.9 242.966 437.712 242.662 438.438C242.425 439 241.833 439.347 241.205 439.347Z" fill="#161616"/>
<path d="M239.39 477.722C239.39 477.722 219.307 480.779 218.37 472.009C217.611 464.886 238.057 469.484 239.39 477.722Z" fill="#8DC73F"/>
<path d="M239.512 478.83C239.329 478.83 239.142 478.8 238.96 478.738L222.474 473.099C221.67 472.824 221.265 472.011 221.57 471.285C221.875 470.56 222.774 470.195 223.578 470.469L240.064 476.108C240.868 476.383 241.273 477.196 240.969 477.922C240.732 478.483 240.14 478.83 239.512 478.83Z" fill="#161616"/>
<path d="M698.099 351.094L779.979 352.165L786.246 422.368C786.246 422.368 787.136 434.155 776.456 434.155C765.776 434.155 698.099 434.423 698.099 434.423C698.099 434.423 684.79 430.404 686.57 421.565C688.35 412.724 698.099 351.094 698.099 351.094Z" fill="#EAEFE8"/>
<path d="M698.099 435.908C697.931 435.908 697.765 435.844 697.605 435.796C697.46 435.752 694 434.674 690.731 432.453C686.166 429.351 684.198 425.496 685.038 421.323C686.792 412.61 696.46 351.598 696.558 350.982C696.667 350.288 697.325 349.851 698.098 349.851C698.107 349.851 698.114 349.851 698.121 349.851L780.002 350.841C780.805 350.852 781.467 351.37 781.531 352.094L787.798 422.275C787.819 422.561 788.248 428.881 784.268 432.729C782.316 434.616 779.688 435.606 776.456 435.606C765.902 435.606 698.783 435.908 698.106 435.908C698.103 435.908 698.102 435.908 698.099 435.908ZM699.446 352.517C698.062 361.247 689.727 413.743 688.102 421.816C686.698 428.787 696.718 432.462 698.366 433.016C703.085 432.997 766.24 432.749 776.456 432.749C778.819 432.749 780.626 432.113 781.984 430.806C785.041 427.861 784.695 422.515 784.692 422.461L778.541 353.552L699.446 352.517Z" fill="#161616"/>
<path d="M686.57 421.564C684.79 430.405 698.099 434.423 698.099 434.423C698.099 434.423 765.776 434.155 776.456 434.155C787.135 434.155 786.246 422.368 786.246 422.368C736.19 392.644 686.57 421.564 686.57 421.564Z" fill="#B2BCAF"/>
<path d="M698.099 435.908C697.931 435.908 697.765 435.844 697.605 435.796C697.46 435.752 694 434.674 690.731 432.453C686.166 429.351 684.198 425.496 685.038 421.323C685.192 420.559 686.001 420.046 686.848 420.187C687.694 420.326 688.256 421.055 688.102 421.819C686.703 428.766 696.719 432.46 698.368 433.017C703.101 432.999 766.24 432.75 776.455 432.75C778.818 432.75 780.626 432.115 781.983 430.808C785.04 427.861 784.695 422.516 784.692 422.462C784.636 421.688 785.285 421.018 786.142 420.967C787.006 420.918 787.74 421.499 787.798 422.273C787.818 422.54 788.248 428.87 784.267 432.719C782.315 434.605 779.687 435.601 776.455 435.601C765.901 435.601 698.782 435.908 698.105 435.908C698.103 435.908 698.102 435.908 698.099 435.908Z" fill="#161616"/>
<path d="M810.239 412.284H785.319C784.511 412.284 783.837 411.726 783.768 410.999L782.799 400.875C782.762 400.483 782.909 400.094 783.203 399.803C783.498 399.513 783.915 399.348 784.351 399.348H797.396L781.397 382.214C781.188 381.991 781.062 381.713 781.035 381.422L779.573 365.186C779.518 364.572 779.912 363.998 780.545 363.768C781.178 363.537 781.903 363.707 782.333 364.184L811.434 396.436C811.473 396.48 811.51 396.525 811.543 396.573C811.73 396.84 816.102 403.159 814.662 408.014C814.123 409.833 812.879 411.216 810.963 412.124C810.74 412.229 810.491 412.284 810.239 412.284ZM786.747 409.472H809.83C810.775 408.948 811.374 408.231 811.653 407.289C812.545 404.295 810.055 399.743 808.959 398.144L783.085 369.469L784.1 380.745L801.937 399.848C802.327 400.266 802.414 400.851 802.158 401.347C801.903 401.843 801.352 402.16 800.746 402.16H786.048L786.747 409.472Z" fill="#161616"/>
<path d="M750.304 396.08C749.826 396.08 749.355 395.882 749.049 395.508C748.539 394.883 748.687 394.002 749.379 393.542C765.29 382.958 770.712 357.224 767.316 344.846C766.694 342.58 765.196 338.716 762.145 338.302C750.814 336.768 739.637 351.721 739.526 351.873C739.049 352.518 738.081 352.693 737.367 352.263C736.651 351.833 736.457 350.961 736.933 350.314C737.433 349.636 749.326 333.724 762.608 335.52C765.147 335.865 768.549 337.645 770.339 344.17C774.021 357.59 768.406 384.377 751.226 395.806C750.948 395.992 750.625 396.08 750.304 396.08Z" fill="#161616"/>
<path d="M652.573 370.311C648.586 370.311 643.896 369.332 638.219 367.011C637.435 366.691 637.088 365.858 637.443 365.15C637.798 364.442 638.722 364.13 639.504 364.449C657.663 371.872 663.952 364.484 671.913 355.132C675.566 350.841 679.344 346.404 684.626 342.962C689.362 339.875 694.374 338.702 699.522 339.474C710.016 341.046 717.256 350.133 717.559 350.519C718.057 351.153 717.891 352.031 717.19 352.479C716.488 352.928 715.516 352.779 715.02 352.146C714.953 352.061 708.203 343.617 698.997 342.245C694.703 341.606 690.481 342.613 686.448 345.242C681.535 348.444 677.899 352.716 674.383 356.846C668.534 363.716 662.919 370.311 652.573 370.311Z" fill="#161616"/>
<path d="M757.567 385.257C757.567 385.257 737.815 397.699 746.413 417.732C746.413 417.733 769.079 411.128 757.567 385.257Z" fill="#8DC73F"/>
<path d="M633.764 347.472C633.764 347.472 647.156 365.548 669.503 358.175C669.503 358.175 662.632 337.582 633.764 347.472Z" fill="#8DC73F"/>
<path d="M681.71 347.886C681.71 347.886 662.817 361.374 672.727 380.906C672.727 380.906 694.915 373.089 681.71 347.886Z" fill="#8DC73F"/>
<path d="M728.386 370.793C728.386 370.793 748.636 382.567 765.89 367.775C765.89 367.775 750.515 351.35 728.386 370.793Z" fill="#8DC73F"/>
<path d="M768.46 358.254C768.46 358.254 758.664 378.123 777.485 391.265C777.485 391.265 793.116 375.037 768.46 358.254Z" fill="#8DC73F"/>
<path d="M700.649 340.456C700.649 340.456 691.922 325.237 673.705 329.236C673.705 329.236 677.08 345.908 700.649 340.456Z" fill="#8DC73F"/>
<path d="M784.274 346.443C784.274 346.443 778.862 334.88 765.308 336.862C765.308 336.862 766.72 349.21 784.274 346.443Z" fill="#8DC73F"/>
<path d="M740.787 347.294C746.12 347.294 750.443 343.39 750.443 338.575C750.443 333.759 746.12 329.855 740.787 329.855C735.455 329.855 731.132 333.759 731.132 338.575C731.132 343.39 735.455 347.294 740.787 347.294Z" fill="#946D42"/>
<path d="M760.719 329.956C766.111 329.956 770.483 326.008 770.483 321.138C770.483 316.268 766.111 312.32 760.719 312.32C755.326 312.32 750.954 316.268 750.954 321.138C750.954 326.008 755.326 329.956 760.719 329.956Z" fill="#946D42"/>
</svg>
