<svg width="55" height="55" viewBox="0 0 55 55" fill="none" xmlns="http://www.w3.org/2000/svg">
<path fill-rule="evenodd" clip-rule="evenodd" d="M37.1989 4.27742C37.472 2.16816 35.7425 0.263535 33.3031 0.0274244C30.8637 -0.224427 28.6609 1.28668 28.3878 3.39594C28.0601 5.80428 28.5152 8.68483 29.0978 11.6441C30.718 12.0691 32.2836 12.683 33.74 13.4071C35.3056 10.2117 36.8348 7.04779 37.1989 4.27742ZM54.3296 13.533C53.3648 11.5811 50.7433 10.6996 48.4859 11.5339C45.5185 12.6515 42.4419 14.8395 39.3471 17.0904C40.5122 18.0821 41.6045 19.1996 42.5329 20.4117C46.0464 20.0339 49.4143 19.5774 52.0176 18.6015C54.275 17.7358 55.3127 15.4691 54.3296 13.533ZM46.8475 3.23853C44.8813 1.97928 42.096 2.32557 40.6396 4.02557C38.4186 6.60705 36.9258 10.4635 35.3056 14.2256C35.8518 14.5404 36.3615 14.8552 36.853 15.1858C37.2171 15.4376 37.5994 15.7052 37.9817 15.9728C41.6955 13.5487 45.5549 11.1876 47.7759 8.60613C49.2323 6.90613 48.8136 4.49779 46.8475 3.23853Z" fill="white"/>
<path d="M38.4004 34.0589C37.035 35.3339 35.5786 36.5145 34.0312 37.6635C31.8649 39.2848 29.6621 40.8589 27.4229 42.37C25.0199 41.095 23.2904 40.4496 22.9991 40.7802C22.7443 41.0793 23.7455 42.1811 25.5478 43.6135C19.5038 47.5015 13.1139 50.933 6.25073 53.7506C5.17665 54.1913 4.04795 54.5061 2.93746 54.8524C2.64618 54.9469 2.3367 54.9469 2.20927 54.9626C0.461608 55.1358 -0.0663309 54.7265 0.00648821 53.3413C0.224946 49.0283 1.77235 44.983 3.37437 40.9534C3.81129 39.8515 4.26641 38.7496 4.73973 37.6478C7.16097 38.9228 8.89042 39.5839 9.1817 39.2534C9.49118 38.8913 8.0348 37.4432 5.59536 35.633C7.34301 31.7293 9.29093 27.8885 11.5847 24.2052C16.1723 27.1487 20.2502 29.0848 20.7053 28.5496C21.1604 28.0145 17.7926 25.1654 13.1503 22.1904L12.9501 22.0645C13.7511 20.8839 14.5885 19.7034 15.4806 18.5543C16.591 17.1061 17.9564 15.7839 19.3036 14.4932C21.1058 12.7774 23.436 12.195 26.0393 12.6987C34.3771 14.3043 40.1662 18.4441 42.897 25.5432C43.4431 26.9913 42.9516 28.408 42.0959 29.7145C41.5134 30.5959 40.8762 31.4302 40.1662 32.2172C35.7607 29.4311 31.9377 27.6367 31.5008 28.1404C31.082 28.6441 34.1222 31.2413 38.4004 34.0589Z" fill="white"/>
</svg>
